<?xml version="1.0" encoding="UTF-8" standalone="no"?>
<!-- Created with Inkscape (http://www.inkscape.org/) -->

<svg
   version="1.1"
   id="svg2"
   xml:space="preserve"
   width="1333.3333"
   height="1066.6667"
   viewBox="0 0 1333.3333 1066.6667"
   sodipodi:docname="mail-08.eps"
   xmlns:inkscape="http://www.inkscape.org/namespaces/inkscape"
   xmlns:sodipodi="http://sodipodi.sourceforge.net/DTD/sodipodi-0.dtd"
   xmlns="http://www.w3.org/2000/svg"
   xmlns:svg="http://www.w3.org/2000/svg"><defs
     id="defs6" /><sodipodi:namedview
     id="namedview4"
     pagecolor="#ffffff"
     bordercolor="#666666"
     borderopacity="1.0"
     inkscape:pageshadow="2"
     inkscape:pageopacity="0.0"
     inkscape:pagecheckerboard="0" /><g
     id="g8"
     inkscape:groupmode="layer"
     inkscape:label="ink_ext_XXXXXX"
     transform="matrix(1.3333333,0,0,-1.3333333,0,1066.6667)"><g
       id="g10"
       transform="scale(0.1)"><path
         d="m 3532.15,4590.1 c 0,68.8 24,132.1 64,182 l 1003.4,-742.9 -1029.7,-762.5 c -24,42.3 -37.7,91.2 -37.7,143.3 z m 291.4,291.4 h 2352.9 c 36.69,0 71.81,-6.8 104.1,-19.3 l -1002.6,-742.4 -122.4,-90.6 -81.8,-60.6 c -38.59,-28.7 -108.9,-28.7 -147.5,0 l -81.89,60.6 -122.31,90.6 -1002.69,742.4 c 32.39,12.5 67.5,19.3 104.19,19.3 z m -151.5,-1720.4 1049.9,777.4 117.6,-87.1 c 45,-33.3 102.8,-49.9 160.51,-49.9 57.6,0 115.39,16.6 160.39,49.9 l 117.6,87.1 1049.9,-777.4 c -44.2,-27 -96,-42.5 -151.5,-42.5 h -2352.9 c -55.49,0 -107.3,15.5 -151.5,42.5 z m 2795.8,1429 V 3410 c 0,-52.1 -13.69,-101 -37.69,-143.3 l -1029.71,762.5 1003.4,742.9 c 40,-49.9 64,-113.2 64,-182 z M 5000.06,6414.9 c -1333.81,0 -2414.9,-1081.2 -2414.9,-2414.9 0,-1333.7 1081.09,-2414.9 2414.9,-2414.9 11.29,0 22.6,0.1 33.79,0.2 1306.5,18 2362.2,1073.4 2380.7,2379.8 0.2,11.6 0.29,23.2 0.29,34.9 0,1333.7 -1081.09,2414.9 -2414.78,2414.9"
         style="fill:#99caf3;fill-opacity:1;fill-rule:nonzero;stroke:none"
         id="path12" /></g></g></svg>
