<?xml version="1.0" encoding="UTF-8" standalone="no"?>
<!-- Created with Inkscape (http://www.inkscape.org/) -->

<svg
   version="1.1"
   id="svg2"
   xml:space="preserve"
   width="7614.3066"
   height="4231.3735"
   viewBox="0 0 7614.3066 4231.3735"
   sodipodi:docname="vecteezy_teamwork-or-team-building-office-business-meeting-vector_4154417.eps"
   xmlns:inkscape="http://www.inkscape.org/namespaces/inkscape"
   xmlns:sodipodi="http://sodipodi.sourceforge.net/DTD/sodipodi-0.dtd"
   xmlns="http://www.w3.org/2000/svg"
   xmlns:svg="http://www.w3.org/2000/svg"><defs
     id="defs6"><clipPath
       clipPathUnits="userSpaceOnUse"
       id="clipPath48"><path
         d="m 8301.2,6663.2 c 0,0 -468.9,-462.8 -436.9,-1186.4 32,-723.7 -82.2,-1323.7 727,-1316.7 0,0 82.7,-478.8 -409.3,-720.8 0,0 592.8,-653.8 1725.1,-11.4 0,0 -483.4,518.3 -270.4,1215.7 0,0 703.7,731.1 145.2,1568.5 -558.5,837.4 -1480.7,451.1 -1480.7,451.1 z"
         id="path46" /></clipPath><clipPath
       clipPathUnits="userSpaceOnUse"
       id="clipPath96"><path
         d="m 5890.1,4697.3 c 0,0 -435.6,-449.7 -401.2,-1148 34.4,-698.2 -68.8,-1278.1 687.8,-1266.3 0,0 80.2,-461.5 -378.3,-698.2 0,0 517.6,-946.8 1612.9,-0.1 0,0 -455.1,497.1 -260.3,1171.7 0,0 653.4,710.1 126.1,1514.9 -527.3,804.7 -1387,426 -1387,426 z"
         id="path94" /></clipPath></defs><sodipodi:namedview
     id="namedview4"
     pagecolor="#ffffff"
     bordercolor="#666666"
     borderopacity="1.0"
     inkscape:pageshadow="2"
     inkscape:pageopacity="0.0"
     inkscape:pagecheckerboard="0" /><g
     id="g8"
     inkscape:groupmode="layer"
     inkscape:label="ink_ext_XXXXXX"
     transform="matrix(1.3333333,0,0,-1.3333333,0,4231.3733)"><g
       id="g10"
       transform="scale(0.1)"><path
         d="M 57107.3,0 H 0 V 31735.3 H 57107.3 V 0"
         style="fill:#ffffff;fill-opacity:1;fill-rule:nonzero;stroke:none"
         id="path12" /><path
         d="m 11987.4,4458.4 c -3568.54,814.2 -6555.01,4347.5 -6369.14,7393.8 150.6,2468.1 2264.07,2655.8 4683.64,6603.3 3050.1,4976.1 1110.5,6992.5 3815.1,9106.9 2989.7,2337.3 8820.3,2579.1 12748.2,1004.8 3266.8,-1309.4 4214.8,-3473 8485.1,-4262.5 1640.7,-303.3 1657.2,-12.9 4031.9,-293.1 2693.1,-317.7 6259.3,-733.4 8897.9,-2568.9 3435.3,-2389.7 4376.2,-6592.9 3922.5,-9742.8 -158,-1096.4 -1019.2,-5774.2 -5302.7,-7916 C 43517.5,2092.6 42046.8,4005.5 34623.9,2687.8 30199,1902.3 28873,894.301 26377.1,1599.1 c -2888.3,815.5 -2617.3,2799.1 -5542.7,3395.4 -3708.8,756.1 -5320.6,-1340.6 -8847,-536.1"
         style="fill:#f2f2f2;fill-opacity:1;fill-rule:nonzero;stroke:none"
         id="path14" /><path
         d="m 38417.9,7959 -160.8,-1701.9 -593.3,44.1 -121.6,1666.5 875.7,-8.7"
         style="fill:#ed7447;fill-opacity:1;fill-rule:nonzero;stroke:none"
         id="path16" /><path
         d="m 36582.3,5733.2 c 21.5,3.3 47.1,11 76,22.2 496.1,155 896.9,573.3 986.9,628.4 109.2,-66.1 521.2,-116.9 603,-65.3 7.7,4.8 16.8,8.9 26.8,12.4 32.4,-41.5 254.8,-334.3 238.4,-548.4 -1.9,-25.4 -3.3,-55.7 -4.3,-89.1 l -17.4,-330.5 -2171.1,-19.9 c -24.6,122.1 33.4,354.3 261.7,390.2"
         style="fill:#382234;fill-opacity:1;fill-rule:nonzero;stroke:none"
         id="path18" /><path
         d="m 33950.6,7973 -160.7,-1701.8 -593.4,44 -121.6,1666.5 875.7,-8.7"
         style="fill:#ed7447;fill-opacity:1;fill-rule:nonzero;stroke:none"
         id="path20" /><path
         d="m 32115,5747.2 c 21.5,3.4 47.2,11 76,22.2 496.1,155 896.9,573.3 986.9,628.4 109.2,-66 521.2,-116.8 603,-65.3 7.7,4.8 16.8,8.9 26.8,12.4 32.4,-41.5 254.8,-334.3 238.4,-548.4 -1.9,-25.4 -3.3,-55.7 -4.3,-89 l -17.4,-330.6 -2171.1,-19.9 c -24.5,122.2 33.4,354.3 261.7,390.2"
         style="fill:#382234;fill-opacity:1;fill-rule:nonzero;stroke:none"
         id="path22" /><path
         d="m 37870.6,19156.8 c 0,0 916.3,-9912.6 865.4,-11505.2 0,0 -585.4,-302.1 -1501.7,-137.3 L 35571.1,14990 34281.8,7431.9 c 0,0 -1091.7,-88.5 -1753.4,241 l 709.8,11346.6 c 0,0 2138.1,-357 4632.4,137.3"
         style="fill:#965326;fill-opacity:1;fill-rule:nonzero;stroke:none"
         id="path24" /><path
         d="m 35571.1,14955.9 c 18.4,0 33.6,14.5 34.2,33 1,31.2 24.8,766.9 -32.1,1108.1 -3.1,18.6 -20.7,31.2 -39.3,28.1 -18.7,-3.1 -31.2,-20.7 -28.1,-39.3 55.7,-334.6 31.4,-1087.1 31.2,-1094.6 -0.7,-18.9 14.1,-34.7 33,-35.3 0.4,0 0.8,0 1.1,0"
         style="fill:#ffffff;fill-opacity:1;fill-rule:nonzero;stroke:none"
         id="path26" /><path
         d="m 32969.7,9466.5 c 11.7,0 21.4,9.1 22.1,20.8 l 283.8,4741.9 c 0.7,12.2 -8.6,22.7 -20.8,23.4 -12.3,0.8 -22.7,-8.6 -23.4,-20.8 L 32947.6,9490 c -0.7,-12.2 8.6,-22.7 20.8,-23.5 0.4,0 0.9,0 1.3,0"
         style="fill:#ffffff;fill-opacity:1;fill-rule:nonzero;stroke:none"
         id="path28" /><path
         d="m 34571.2,26405.2 c 0,0 922.2,386.3 1480.7,-451.1 558.5,-837.4 -145.2,-1568.5 -145.2,-1568.5 -213,-697.4 261.8,-1206.9 261.8,-1206.9 -10,-5.7 -19.9,-11 -29.8,-16.5 -345.9,-113.4 -1119.1,-303.2 -1618.3,56.5 415.6,250.6 340.9,683.4 340.9,683.4 -809.2,-7 -695,593 -727,1316.7 -32,723.6 436.9,1186.4 436.9,1186.4"
         style="fill:#ed7447;fill-opacity:1;fill-rule:nonzero;stroke:none"
         id="path30" /><path
         d="m 34911.4,25094.8 c 35.5,-49.5 104.5,-60.8 154,-25.3 49.5,35.5 60.9,104.5 25.3,154 -35.5,49.5 -104.4,60.9 -153.9,25.3 -49.6,-35.5 -60.9,-104.4 -25.4,-154"
         style="fill:#000000;fill-opacity:1;fill-rule:nonzero;stroke:none"
         id="path32" /><path
         d="m 34259.3,25196.4 c -0.4,-60.9 48.7,-110.6 109.6,-111 61,-0.4 110.7,48.6 111.1,109.6 0.4,60.9 -48.7,110.6 -109.6,111 -61,0.4 -110.7,-48.6 -111.1,-109.6"
         style="fill:#000000;fill-opacity:1;fill-rule:nonzero;stroke:none"
         id="path34" /><path
         d="m 34693,25312.1 c 0,0 -290.5,-353.7 -241.9,-427.5 48.6,-73.9 170.9,-111.5 312.2,-69.5 l -52.2,454 c 0,0 0.2,33.7 -18.1,43"
         style="fill:#d35e39;fill-opacity:1;fill-rule:nonzero;stroke:none"
         id="path36" /><path
         d="m 35180.3,25470.9 c 12.6,20.9 1.7,51.1 -8.7,67.5 -28.3,44.3 -90.6,47.1 -156,50.1 -68.9,3 -143.5,6.4 -168.9,-38.8 -10.6,-18.9 -13,-47.1 -0.4,-67.4 15.5,-25 45.8,-25.4 177.6,-28.8 113.9,-2.9 143.5,-4 156.4,17.4"
         style="fill:#000000;fill-opacity:1;fill-rule:nonzero;stroke:none"
         id="path38" /><path
         d="m 34473.9,25508.9 c 12.6,20.9 1.7,51.1 -8.7,67.5 -28.3,44.4 -90.6,47.1 -156,50.1 -68.9,3 -143.5,6.4 -168.9,-38.8 -10.6,-18.9 -13,-47.1 -0.4,-67.4 15.5,-25 45.8,-25.4 177.6,-28.8 113.9,-2.9 143.5,-4 156.4,17.4"
         style="fill:#000000;fill-opacity:1;fill-rule:nonzero;stroke:none"
         id="path40" /><g
         id="g42"><g
           id="g44"
           clip-path="url(#clipPath48)"><path
             d="m 34861.3,23902.1 c 0,0 356,63 619,282 0,0 -118.6,-645 -830.7,-779.3 l 211.7,497.3"
             style="fill:#d35e39;fill-opacity:1;fill-rule:nonzero;stroke:none"
             id="path50" /></g></g><path
         d="m 35300,24654.7 c 210.7,91.1 416.9,426.1 453,758.7 -39.1,284.9 -196.7,779.2 -814.5,903.6 0,0 -736.2,-86.1 -793.2,-821.4 0,0 -386.9,363.2 -372.1,743.2 5.4,139.8 54,257.6 133.2,352.6 h -0.2 c 0.3,0.2 0.5,0.5 0.7,0.7 42.3,50.5 93.2,94.5 151.1,131.8 588.1,445.4 1300.9,244.2 1300.9,244.2 l -9.2,-10.1 c 224.3,-64.3 464.8,-215.6 680.8,-525.6 0,0 613.3,45 682.2,-666.6 0,0 -264.1,-1015.9 -830.8,-1429 l 2,306.5 c 0,0 308.4,292.2 187.1,489.2 -73.3,119.1 -169.8,121.8 -234.7,105.3 -4.6,-124.3 21.4,-323 -9.1,-532.9 -63,-432.8 -218.2,-990.8 -855.7,-962.6 -637.5,28.3 -958.7,47.1 -820.7,900.4 0,0 847.5,-118.3 1149.2,12"
         style="fill:#382234;fill-opacity:1;fill-rule:nonzero;stroke:none"
         id="path52" /><path
         d="m 34886,24429.5 -397.3,2.6 c 0,0 41.7,-179.4 197.6,-161 156,18.5 199.7,158.4 199.7,158.4"
         style="fill:#ffffff;fill-opacity:1;fill-rule:nonzero;stroke:none"
         id="path54" /><path
         d="m 38048.1,17247.6 c 0,0 -4179,-220.7 -4931.1,-38.2 l 94,2900.8 4550.3,365.1 286.8,-3227.7"
         style="fill:#2e7c4a;fill-opacity:1;fill-rule:nonzero;stroke:none"
         id="path56" /><path
         d="m 31794,18785.3 c -80.9,321.3 -179.5,1039.5 100.8,2176.8 394.8,1602.5 1090.6,2109.7 1090.6,2109.7 l 1734.4,322.2 c 0,0 102.8,-363 465,-360.6 221.8,1.4 544.6,115.4 790.2,444 0,0 1786.3,40.6 2049.6,-649.1 263.2,-689.6 1391.4,-2758.7 1278.6,-3549.8 -112.9,-791.1 -1391.5,-1176.5 -3478.6,-588.3 0,0 -1654.4,-1329 -3754.2,-221.4 l 1.6,1.4 c -193.4,104.8 -271.4,297.8 -278,315.1"
         style="fill:#3d9660;fill-opacity:1;fill-rule:nonzero;stroke:none"
         id="path58" /><path
         d="m 35235.4,20429.7 -282,-867.2 -832,15.2 c 0,0 310.2,836.7 1114,852"
         style="fill:#ed7447;fill-opacity:1;fill-rule:nonzero;stroke:none"
         id="path60" /><path
         d="m 36784.1,19966.7 c 0,0 343.5,148.7 308.4,234.7 -35.2,85.9 -321.4,-117.4 -347.6,-97.2 -26.3,20.2 85.6,95 286.5,206.7 0,0 15.7,120.5 -72.9,87.1 -88.7,-33.5 -307.6,-197.3 -337.7,-183.5 -30.1,13.9 114.2,141.8 321.7,272.2 0,0 13.9,87.6 -65.3,76.8 0,0 -414.3,-253.2 -417.1,-212 -2.8,41.1 392.9,296.6 373.5,360.2 -19.4,63.6 -88.4,59.3 -139.6,22.1 -51.2,-37.1 -535,-389.1 -550,-328.6 -14.9,60.5 158.5,248.7 134.7,292.4 -23.9,43.7 -132.9,41.7 -199.8,-77.8 -66.8,-119.4 -328.2,-424.5 -328.2,-424.5 l 1033.4,-228.6"
         style="fill:#ed7447;fill-opacity:1;fill-rule:nonzero;stroke:none"
         id="path62" /><path
         d="m 36848.2,19927 c 139.3,0 252.9,20.3 340,60.9 229.3,107 349.2,421.8 356.4,935.7 5.3,375.4 -54.5,725.5 -55.2,729 -3.2,18.6 -20.9,31 -39.5,27.8 -18.6,-3.2 -31,-20.9 -27.8,-39.5 0.6,-3.4 59.4,-348.1 54.1,-717.2 -4.7,-333.4 -63.6,-755.7 -316.9,-873.8 -82.6,-38.6 -189.4,-54.7 -309.9,-54.7 -611.9,-0.1 -1582.5,415.2 -1594.1,420.2 -17.4,7.5 -37.5,-0.5 -45,-17.8 -7.4,-17.4 0.5,-37.5 17.9,-45 3.5,-1.5 359.3,-154.3 774.3,-275.2 343.9,-100.2 626.7,-150.4 845.7,-150.4"
         style="fill:#ffffff;fill-opacity:1;fill-rule:nonzero;stroke:none"
         id="path64" /><path
         d="m 35824.6,18656 c 12.5,0 24.6,7 30.6,18.9 8.4,16.9 1.6,37.5 -15.3,45.9 -6.4,3.2 -637.3,323.7 -851.4,856.1 -7.1,17.5 -27,26 -44.5,18.9 -17.5,-7 -26,-26.9 -18.9,-44.4 117.3,-291.7 351.6,-518.6 527.5,-657.7 189.9,-150 350,-230.7 356.7,-234 4.9,-2.5 10.1,-3.7 15.3,-3.7"
         style="fill:#ffffff;fill-opacity:1;fill-rule:nonzero;stroke:none"
         id="path66" /><path
         d="m 34121.4,19543.5 c 18.8,0 34.1,15.3 34.1,34.2 0,18.9 -15.3,34.2 -34.1,34.2 -9.2,0 -920.9,4.6 -1217.3,382.4 -119.6,152.5 -106.6,477.1 37.5,938.6 110.8,354.8 261,665.4 262.5,668.5 8.3,17 1.2,37.4 -15.8,45.7 -16.9,8.2 -37.4,1.2 -45.6,-15.8 -25.2,-51.8 -612.1,-1271.5 -292.3,-1679.1 133.9,-170.9 389.4,-291.5 759.1,-358.7 272.2,-49.4 502.2,-50 511.9,-50"
         style="fill:#ffffff;fill-opacity:1;fill-rule:nonzero;stroke:none"
         id="path68" /><path
         d="m 37554.5,17580.6 h 4361.8 c 106.9,0 204.2,-86.6 217.4,-193.5 l 358,-2898.4 h 1346.6 c 40.2,0 72.8,-32.6 72.8,-72.8 v -131.1 c 0,-40.2 -32.6,-72.8 -72.8,-72.8 h -1477.7 c -9,-1.3 -18.4,-2.1 -28,-2.1 h -4361.8 c -106.9,0 -204.2,86.7 -217.4,193.5 l -368.5,2983.7 c -13.2,106.9 62.7,193.5 169.6,193.5"
         style="fill:#c7c7c7;fill-opacity:1;fill-rule:nonzero;stroke:none"
         id="path70" /><path
         d="M 42244.2,14724.8 H 37971 l -313.3,2508.7 h 4266.7 l 319.8,-2508.7"
         style="fill:#eaeaea;fill-opacity:1;fill-rule:nonzero;stroke:none"
         id="path72" /><path
         d="m 39631.8,5329.2 c -39.5,0 -71.5,32 -71.5,71.4 v 8524.8 c 0,39.4 32,71.4 71.5,71.4 39.4,0 71.4,-32 71.4,-71.4 V 5400.6 c 0,-39.4 -32,-71.4 -71.4,-71.4"
         style="fill:#382234;fill-opacity:1;fill-rule:nonzero;stroke:none"
         id="path74" /><path
         d="m 18266,20276.5 c 0,0 -1057.2,30 -1597,412.4 0,0 -454.9,559.8 -844.8,609.8 0,0 -99.9,-40 0,-125 100,-84.9 364.9,-234.9 324.9,-274.9 -40,-40 -283.8,45 -369.3,95 -85.5,50 -395.4,274.9 -425.4,249.9 -30,-25 -90,-99.9 -20,-139.9 69.9,-40 424.8,-235 409.8,-280 -14.9,-44.9 -39.9,-39.9 -99.9,-5 -60,35 -419.9,230 -469.9,225 -50,-5 -65,-75 -35,-100 30,-25 449.9,-244.9 449.9,-284.9 0,-40 -33.7,-26.3 -35.6,-20.6 -1.9,5.6 -326.2,163.1 -350.5,159.3 -24.4,-3.7 -65.6,-45 -39.4,-78.7 26.2,-33.8 365.5,-215.6 363.6,-240 -1.8,-24.3 -9.3,-28.1 -30,-24.3 -20.6,3.7 -278,141.8 -293,131.8 -15,-10 -57.5,-45 -40,-75 17.5,-30 424.9,-358.6 638.6,-392.3 213.7,-33.8 442.4,-97.5 569.8,-240 127.5,-142.4 1263.4,-1237.1 1960.7,-1372.1 0,0 82.5,1349.6 -67.5,1769.5"
         style="fill:#ff8f57;fill-opacity:1;fill-rule:nonzero;stroke:none"
         id="path76" /><path
         d="m 21005.1,25877.3 c 0,0 -515,-447.6 -480.6,-1145.8 34.4,-698.3 10.6,-1280.3 767.2,-1268.5 0,0 80.2,-461.5 -378.3,-698.2 0,0 523.6,-952.8 1604.8,8.2 0,0 -447,488.8 -252.2,1163.4 0,0 653.4,710.1 126.1,1514.9 -527.3,804.7 -1387,426 -1387,426"
         style="fill:#ed7447;fill-opacity:1;fill-rule:nonzero;stroke:none"
         id="path78" /><path
         d="m 21420.1,24574.7 c 33.5,-47.6 98,-58.1 144.1,-23.5 46.1,34.6 56.3,101.2 22.8,148.8 -33.5,47.6 -98.1,58.1 -144.1,23.5 -46.1,-34.6 -56.3,-101.2 -22.8,-148.8"
         style="fill:#2b3058;fill-opacity:1;fill-rule:nonzero;stroke:none"
         id="path80" /><path
         d="m 20702.9,24648.8 c 0,-58.8 46.2,-106.5 103.2,-106.5 56.9,0 103.1,47.7 103.1,106.5 0,58.8 -46.2,106.5 -103.1,106.5 -57,0 -103.2,-47.7 -103.2,-106.5"
         style="fill:#2b3058;fill-opacity:1;fill-rule:nonzero;stroke:none"
         id="path82" /><path
         d="m 21111.7,24690.1 c 0,0 234.7,-369.3 182.2,-435.2 -52.5,-65.9 -170,-89.4 -297.1,-34.6 l 93.8,430.4 c 0,0 3.1,32.4 21.1,39.4"
         style="fill:#d35e39;fill-opacity:1;fill-rule:nonzero;stroke:none"
         id="path84" /><path
         d="m 21728.7,24942 c 11.6,20.3 1.3,49.3 -8.6,65.1 -26.7,42.6 -85,44.9 -146.2,47.3 -64.3,2.6 -134.1,5.3 -157.6,-38.4 -9.8,-18.4 -11.9,-45.6 0,-65.1 14.7,-24.1 43.1,-24.2 166.2,-26.6 106.6,-2.1 134.3,-3 146.2,17.7"
         style="fill:#2b3058;fill-opacity:1;fill-rule:nonzero;stroke:none"
         id="path86" /><path
         d="m 20989.5,24954.9 c 11.6,20.3 1.3,49.3 -8.6,65.1 -26.7,42.6 -85,44.9 -146.2,47.3 -64.3,2.6 -134.1,5.3 -157.6,-38.4 -9.8,-18.4 -11.9,-45.6 0,-65.1 14.7,-24.1 43.1,-24.2 166.2,-26.6 106.6,-2.2 134.3,-3 146.2,17.7"
         style="fill:#2b3058;fill-opacity:1;fill-rule:nonzero;stroke:none"
         id="path88" /><g
         id="g90"><g
           id="g92"
           clip-path="url(#clipPath96)"><path
             d="m 21291.7,23463 c 0,0 332.4,63.1 577,276.2 0,0 -107,-623.3 -771.9,-757.5 l 194.9,481.3"
             style="fill:#d35e39;fill-opacity:1;fill-rule:nonzero;stroke:none"
             id="path98" /></g></g><path
         d="m 21196.5,23702.7 c 215.2,27.7 303.3,195.6 328.6,257 h -659 c 22.4,-70.7 109.1,-285.6 330.4,-257"
         style="fill:#ffffff;fill-opacity:1;fill-rule:nonzero;stroke:none"
         id="path100" /><path
         d="m 22119,26074.1 c 0,0 466.5,151.9 292.9,705.1 -15.4,49.1 -34.9,91.2 -57.5,127.1 -216.9,245.7 -616.3,141 -698.7,-94.7 -116.2,-332.5 40.3,-574.8 40.3,-574.8 0,0 -1128.1,21.7 -1496.9,-1312.5 -364.3,-1317.8 374.2,-1790.4 1082.2,-1697.2 21.1,87.3 21.8,189.6 10.5,236.4 -76.6,-5.7 -524.9,-10.5 -669.7,462.9 -184.9,604.7 -81.6,1589.2 339.6,1842.6 621.7,374 1078.1,-488.7 1078.1,-987.7 0,0 229.2,135.6 300.2,-27.4 74.1,-170.1 -53.2,-368 -286,-469.6 0,0 80.7,-694.3 189.2,-932.9 0,0 1112.4,97.7 1296.8,640.1 184.4,542.3 -509.8,1757.2 -1421,2082.6"
         style="fill:#382234;fill-opacity:1;fill-rule:nonzero;stroke:none"
         id="path102" /><path
         d="m 24216.1,7186.5 1000.6,-80.3 352.8,-830.8 c 0,0 942.3,-660.9 1058.5,-678.8 116.1,-17.9 509.1,44.7 437.6,-250.1 h -2745.1 c 0,0 101.2,669.9 351.3,920 l -455.7,920"
         style="fill:#ed7447;fill-opacity:1;fill-rule:nonzero;stroke:none"
         id="path104" /><path
         d="M 27043.8,5507.3 H 26625 v 89.9 c -19.4,4.2 -57.1,22.6 -107.2,51 v -140.9 h -1555.4 c -1.1,103.4 -19.5,412.1 -187.9,661 h 728 221.3 c -10.9,183.1 -129.3,196.5 -129.3,196.5 h -999.3 l 49.2,-98.3 c -250.1,-250.1 -323.9,-920 -323.9,-920 h 2745.1 c 17.9,73.6 6.8,124.9 -21.8,160.8"
         style="fill:#382234;fill-opacity:1;fill-rule:nonzero;stroke:none"
         id="path106" /><path
         d="m 20110.6,7199.1 1000.6,-80.4 352.7,-830.7 c 0,0 942.4,-661 1058.5,-678.8 116.1,-17.9 509.1,44.6 437.7,-250.1 h -2745.2 c 0,0 101.2,669.9 351.3,920 l -455.6,920"
         style="fill:#ed7447;fill-opacity:1;fill-rule:nonzero;stroke:none"
         id="path108" /><path
         d="m 22938.3,5519.8 h -418.9 v 90 c -19.3,4.2 -57,22.6 -107.2,51 v -141 h -1555.3 c -1.2,103.4 -19.6,412.1 -187.9,661 h 727.9 221.3 c -10.9,183.1 -129.3,196.5 -129.3,196.5 h -999.3 l 49.2,-98.2 c -250.1,-250.1 -323.9,-920 -323.9,-920 h 2745.2 c 17.8,73.6 6.7,124.9 -21.8,160.7"
         style="fill:#382234;fill-opacity:1;fill-rule:nonzero;stroke:none"
         id="path110" /><path
         d="m 20494.8,22862.6 c 0,0 548.6,47.4 640.1,60.4 0,0 215.1,-500.5 625.6,-457.5 518.6,54.3 603.2,545.7 603.2,545.7 0,0 314.4,38.9 419,21.4 104.5,-17.5 664.3,-164.5 677.3,-575 13.1,-410.5 39.3,-4620.1 209.2,-5077.7 L 20597,17223.1 c 0,0 -8.2,4745.6 -102.2,5229.3 0,0 -89,271.4 0,410.2"
         style="fill:#f4ebdc;fill-opacity:1;fill-rule:nonzero;stroke:none"
         id="path112" /><path
         d="m 20061,17558.3 c 0,0 -485.8,-8469.9 -67.4,-10509.4 H 22216 c 0,0 145.9,5924.2 198.2,6582.6 0,0 1079.7,-5615.1 1445.8,-6582.6 h 2483.9 c 0,0 -1733.4,8992.9 -2204.1,10666.2 L 20061,17558.3"
         style="fill:#433a55;fill-opacity:1;fill-rule:nonzero;stroke:none"
         id="path114" /><path
         d="m 20494.8,22862.6 c 0,0 -1058.9,-104.5 -1255,-300.7 -196.1,-196.1 -274.5,-326.8 -418.3,-810.5 -143.9,-483.7 -235.4,-1215.8 -601.4,-1398.8 0,0 143.8,-1425 0,-2039.5 0,0 183,-169.9 300.7,-130.7 117.6,39.2 915.1,588.3 1124.3,1006.6 0,0 196.1,-614.4 -78.5,-1516.5 -274.5,-902 -91.5,-1307.3 -91.5,-1307.3 0,0 1372.7,-326.8 1738.8,-65.4 0,0 65.3,1124.3 -65.4,1882.6 -130.7,758.2 -13.1,2980.7 -196.1,3673.6 -183,692.9 -457.6,1006.6 -457.6,1006.6"
         style="fill:#e03b1f;fill-opacity:1;fill-rule:nonzero;stroke:none"
         id="path116" /><path
         d="m 22782.7,23032.6 c 0,0 39.2,-1555.7 -143.8,-2457.8 -183.1,-902.1 -140.3,-2000.2 73.6,-2876.1 214,-875.9 436.2,-967.5 436.2,-967.5 0,0 1385.8,104.6 1608,209.2 0,0 -379.1,902.1 -392.2,1189.7 0,0 248.4,-156.9 627.6,-156.9 0,0 65.3,52.3 65.3,156.9 0,104.6 65.4,1333.5 431.4,1751.8 0,0 -705.9,2131 -941.2,2523.2 -235.4,392.2 -1764.9,627.5 -1764.9,627.5"
         style="fill:#e03b1f;fill-opacity:1;fill-rule:nonzero;stroke:none"
         id="path118" /><path
         d="m 22409.5,14055.4 c -250.2,1179.4 -455.8,3434.2 -457.8,3456.8 l 71.1,6.5 c 2.1,-22.6 207.2,-2273.2 456.5,-3448.5 l -69.8,-14.8"
         style="fill:#ffffff;fill-opacity:1;fill-rule:nonzero;stroke:none"
         id="path120" /><path
         d="m 22312.4,15075.3 -48.8,52.2 357.1,333 c 29.1,27.2 43.3,66.9 38.1,106.3 -72.1,544 -248.1,1930.2 -249.8,1944.1 l 70.8,9 c 1.8,-13.9 177.8,-1399.9 249.8,-1943.7 8.3,-62.3 -14.2,-125 -60.2,-167.9 l -357,-333"
         style="fill:#ffffff;fill-opacity:1;fill-rule:nonzero;stroke:none"
         id="path122" /><path
         d="m 24335.7,18109.1 c -4.3,5.8 -104.9,146 -200.5,446.6 -87.5,275.1 -187,743.4 -164.6,1412.2 l 71.3,-2.4 c -42.1,-1258.1 347.6,-1809 351.5,-1814.4 l -57.7,-42"
         style="fill:#ffffff;fill-opacity:1;fill-rule:nonzero;stroke:none"
         id="path124" /><path
         d="m 46161.7,18427.7 c -72.2,166.4 -185.4,457.1 -185.4,645.8 0,0 55.5,1096.5 -166.3,1367.6 -221.8,271 -1249.6,396.2 -1754.8,310 0,0 2.6,-636.5 -60.7,-759.7 -63.4,-123.3 -260.5,-252.6 -217.4,-314.2 43.1,-61.6 184.8,-73.9 184.8,-73.9 l -6.1,-141.7 c 0,0 -8.8,-591.4 38.7,-659.2 47.5,-67.7 688.2,-160.1 842.2,-135.5 l -3.2,-349 c 207.5,-40.3 783.9,-119.1 1328.2,109.8"
         style="fill:#ed7447;fill-opacity:1;fill-rule:nonzero;stroke:none"
         id="path126" /><path
         d="m 45928.7,5763.2 c 15.8,186.9 -275,1237.4 -490.7,1979 l -815,-41.4 c 277.3,-763.3 500.9,-1440.3 500.9,-1440.3 0,0 -728.4,-457.1 -1082.6,-518.8 0,0 -313.8,-155.3 -88.6,-340.2 225.3,-184.9 1952.9,89.3 1976,361.7"
         style="fill:#ed7447;fill-opacity:1;fill-rule:nonzero;stroke:none"
         id="path128" /><path
         d="m 45861.5,6172.3 c -68.1,-89.4 -169.6,-268.3 -400.6,-328.3 -320.6,-83.3 -977.4,-311.2 -1239.3,-254.6 -120.8,26.1 -162,91.3 -171.3,154.1 -3,-0.6 -6.1,-1.2 -9,-1.8 0,0 -313.8,-155.3 -88.6,-340.2 169.8,-139.3 1191.9,-18 1695.8,166.7 l -10,-264.3 272.8,-10.3 18.2,480.7 c 6.5,94.6 -0.2,246.2 -68,398"
         style="fill:#1c213f;fill-opacity:1;fill-rule:nonzero;stroke:none"
         id="path130" /><path
         d="m 43048.2,5876.9 c 15.8,186.9 -274.9,1237.4 -490.7,1979 l -814.9,-41.4 c 277.3,-763.4 500.8,-1440.3 500.8,-1440.3 0,0 -728.3,-457.1 -1082.6,-518.8 0,0 -313.8,-155.3 -88.5,-340.2 225.3,-184.9 1952.9,89.2 1975.9,361.7"
         style="fill:#ed7447;fill-opacity:1;fill-rule:nonzero;stroke:none"
         id="path132" /><path
         d="m 42981.1,6285.9 c -68.1,-89.3 -169.7,-268.2 -400.7,-328.2 -320.6,-83.3 -977.3,-311.2 -1239.3,-254.6 -120.8,26 -161.9,91.3 -171.2,154 -3,-0.6 -6.1,-1.2 -9.1,-1.7 0,0 -313.8,-155.3 -88.5,-340.2 169.7,-139.3 1191.9,-18.1 1695.8,166.7 l -10,-264.3 272.8,-10.3 18.1,480.7 c 6.5,94.6 -0.1,246.2 -67.9,397.9"
         style="fill:#1c213f;fill-opacity:1;fill-rule:nonzero;stroke:none"
         id="path134" /><path
         d="m 39003.9,15767.2 c 0,0 -369.2,157.6 -579.8,356.1 -210.5,198.5 -475.1,487.2 -529.3,439.1 -54.1,-48.1 -72.2,-108.3 0,-162.4 72.2,-54.1 246.6,-246.6 222.6,-270.7 -24.1,-24 -890.3,318.8 -914.3,306.8 -24.1,-12 -54.1,-72.2 0,-108.3 54.1,-36.1 529.3,-288.7 529.3,-306.8 0,-18 -18,-54.1 -54.1,-36 -36.1,18 -619.6,294.7 -673.7,264.6 -54.1,-30.1 -54.1,-84.2 0,-120.3 54.1,-36.1 583.5,-228.6 601.5,-270.7 18,-42.1 -30.1,-54.1 -66.2,-42.1 -36.1,12.1 -609.5,134.7 -643.6,96.3 -41.4,-46.7 -45.1,-81.7 33.1,-105.7 78.2,-24.1 616.5,-159 622.6,-195.1 6,-36.1 -60.2,-54.1 -102.3,-36.1 -42.1,18.1 -556.3,109.8 -592.5,30.1 -27.6,-60.8 3,-114.3 147.4,-126.3 144.4,-12 655.6,-114.3 806,-198.5 150.4,-84.2 499.2,-36.1 679.7,-114.3 180.5,-78.2 336.8,-156.4 336.8,-156.4 l 176.8,756.7"
         style="fill:#ed7447;fill-opacity:1;fill-rule:nonzero;stroke:none"
         id="path136" /><path
         d="m 15924.5,13871.5 h 29445.1 v 342.6 H 15924.5 v -342.6"
         style="fill:#e03b1f;fill-opacity:1;fill-rule:nonzero;stroke:none"
         id="path138" /><path
         d="m 25246.6,19877.2 c 0,0 682.8,112.5 907.8,315.1 225.1,202.5 1080.4,607.7 1162.9,570.2 82.6,-37.6 -30,-135.1 -75,-142.6 -45,-7.5 -430.1,-210.1 -345.1,-255.1 85,-45 1010.3,175.1 1040.3,125.1 30,-50.1 20,-80.1 -125,-100.1 -145,-20 -400.1,-110 -400.1,-125 0,-15 5,-50 70,-40 65,10 625.2,85 635.2,45 10,-40 35,-100 -85,-110 -120.1,-10.1 -590.2,-20.1 -585.2,-65.1 5,-45 -10,-35 50,-40 60,-5 550.2,20 565.2,5 15,-15 65,-90 -55,-105 -120.1,-15 -605.2,10 -605.2,-30 0,-40 25,-45 60,-47.5 35,-2.5 520.2,7.5 545.2,-22.5 25,-30.1 30,-100.1 -70.1,-100.1 -100,0 -810.2,-40 -985.3,-115 -175,-75 -598.9,-388.9 -869,-715.3 -270.1,-326.3 -776.5,-705.2 -1361.7,-885.3 0,0 -150.1,990.4 525.1,1838.2"
         style="fill:#ff8f57;fill-opacity:1;fill-rule:nonzero;stroke:none"
         id="path140" /><path
         d="m 24198.7,17580.6 h 4361.7 c 106.9,0 204.2,-86.6 217.4,-193.5 l 358,-2898.4 h 1346.7 c 40.2,0 72.8,-32.6 72.8,-72.8 v -131.1 c 0,-40.2 -32.6,-72.8 -72.8,-72.8 h -1477.7 c -9.1,-1.3 -18.4,-2.1 -28,-2.1 H 24615 c -106.9,0 -204.2,86.7 -217.4,193.5 l -368.5,2983.7 c -13.3,106.9 62.7,193.5 169.6,193.5"
         style="fill:#c7c7c7;fill-opacity:1;fill-rule:nonzero;stroke:none"
         id="path142" /><path
         d="m 28888.3,14724.8 h -4273.1 l -313.3,2508.7 h 4266.7 l 319.7,-2508.7"
         style="fill:#eaeaea;fill-opacity:1;fill-rule:nonzero;stroke:none"
         id="path144" /><path
         d="m 27597,14762.6 c 0,0 -1441.1,252.9 -1871.4,-605.5 l 2215.1,-15 411.1,71.7 v 795.2 l -754.8,-246.4"
         style="fill:#ed7447;fill-opacity:1;fill-rule:nonzero;stroke:none"
         id="path146" /><path
         d="m 26043.4,14173.6 c -2.6,0 -5.2,0.6 -7.7,1.8 -8.9,4.3 -12.6,15 -8.3,23.9 4,8.4 102.1,207.4 326.2,333.4 8.6,4.8 19.5,1.7 24.3,-6.9 4.8,-8.6 1.8,-19.5 -6.8,-24.3 -214,-120.2 -310.6,-315.8 -311.6,-317.8 -3,-6.4 -9.4,-10.1 -16.1,-10.1"
         style="fill:#2b3058;fill-opacity:1;fill-rule:nonzero;stroke:none"
         id="path148" /><path
         d="m 26611.6,14127.5 c -107.5,0 -205.4,13 -256.8,52.1 -25.1,19.1 -38.8,43.3 -40.8,72.1 -3.7,51.8 66.6,69.2 148.1,89.3 75.3,18.6 160.7,39.7 168.1,85.2 41.5,254.5 443.2,264.4 460.3,264.7 0.1,0 0.2,0 0.3,0 9.7,0 17.7,-7.8 17.8,-17.6 0.2,-9.8 -7.6,-18 -17.5,-18.1 -3.9,-0.1 -389,-9.7 -425.6,-234.7 -11.3,-68.8 -108.8,-92.9 -194.8,-114.2 -51.8,-12.8 -122.7,-30.3 -121.1,-52 1.3,-18.4 10.1,-33.5 26.9,-46.3 137.2,-104.5 685.5,4.3 691,5.4 9.7,2 19.1,-4.3 21.1,-13.9 1.9,-9.7 -4.4,-19.1 -14,-21.1 -15.3,-3 -256.7,-50.9 -463,-50.9"
         style="fill:#2b3058;fill-opacity:1;fill-rule:nonzero;stroke:none"
         id="path150" /><path
         d="m 30320.4,7913.5 -989.8,-1652.7 -632,20.9 758.5,1640.4 863.3,-8.6"
         style="fill:#ed7447;fill-opacity:1;fill-rule:nonzero;stroke:none"
         id="path152" /><path
         d="m 27687.9,5719.1 c 21.2,3.4 46.5,10.9 74.9,21.9 489.1,152.8 884.3,565.2 973,619.6 107.7,-65.2 513.8,-115.2 594.5,-64.4 7.5,4.7 16.6,8.7 26.4,12.2 32,-40.9 251.2,-329.6 235.1,-540.6 -1.9,-25.1 -3.3,-55 -4.3,-87.9 l -17.1,-325.8 -2140.5,-19.6 c -24.2,120.4 32.9,349.2 258,384.6"
         style="fill:#382234;fill-opacity:1;fill-rule:nonzero;stroke:none"
         id="path154" /><path
         d="m 28599.3,9881.9 -989.8,-1652.7 -631.9,20.9 758.4,1640.4 863.3,-8.6"
         style="fill:#ed7447;fill-opacity:1;fill-rule:nonzero;stroke:none"
         id="path156" /><path
         d="m 25966.8,7687.5 c 21.2,3.3 46.5,10.9 75,21.9 489,152.8 884.2,565.2 972.9,619.6 107.7,-65.2 513.8,-115.2 594.5,-64.4 7.6,4.7 16.6,8.7 26.4,12.2 32,-40.9 251.2,-329.6 235.1,-540.6 -1.9,-25.1 -3.3,-55 -4.3,-87.9 l -17.1,-325.8 -2140.5,-19.6 c -24.2,120.4 32.9,349.2 258,384.6"
         style="fill:#382234;fill-opacity:1;fill-rule:nonzero;stroke:none"
         id="path158" /><path
         d="m 35040.2,18396.1 c -72.2,166.4 -185.4,457.1 -185.4,645.8 0,0 55.5,1096.5 -166.3,1367.6 -221.8,271 -1249.6,396.2 -1754.8,310 0,0 2.7,-636.5 -60.7,-759.7 -63.4,-123.2 -260.5,-252.6 -217.4,-314.2 43.1,-61.6 184.8,-73.9 184.8,-73.9 l -6.1,-141.7 c 0,0 -8.8,-591.4 38.7,-659.2 47.5,-67.7 688.2,-160.1 842.2,-135.5 l -3.2,-349 c 207.5,-40.3 783.9,-119.1 1328.2,109.8"
         style="fill:#ed7447;fill-opacity:1;fill-rule:nonzero;stroke:none"
         id="path160" /><path
         d="m 35249.1,21000.8 c -110.9,369.7 -985.6,874.8 -1995.9,505.2 0,0 -385.3,-330.3 -380.1,-713.8 75.2,-179.5 209.7,-194.8 220.6,-195.8 0.2,0 0.5,0 0.7,0 h 0.1 v 0 c 197.8,-16.3 483.3,-57.9 491.3,-162.3 12.3,-160.2 0,-591.4 0,-591.4 0,0 -4.4,-82.2 -16.7,-185.9 -1.3,-11.2 -2.7,-22.6 -4.2,-34.2 -3.8,-23 -11.6,-58 -27,-83.1 -29.8,-42.6 -92.2,-113.4 -182.6,-119.5 -296.2,-20 -514.9,151.7 -514.9,151.7 0,0 -37.4,-174.7 -30,-332.7 v 0 c 6.2,-143 14.6,-314.4 23.3,-356.3 14.1,-68.6 17.1,-180.6 66.9,-201.9 2.6,-0.9 5.3,-1.9 8.1,-2.6 114.3,-30.1 698.7,-103.8 806.5,-42.9 107.8,60.9 204,284.3 192,560.6 -12,276.3 -157.7,551.8 -148.9,646.8 0,0 0,332.7 197.1,308 197.2,-24.6 234.1,-406.6 135.6,-616 -98.6,-209.5 52.6,-431.2 52.6,-431.2 l 711.2,-61.6 c 0,0 172.5,702.2 308.1,911.7 135.5,209.4 197.1,677.6 86.2,1047.2"
         style="fill:#382234;fill-opacity:1;fill-rule:nonzero;stroke:none"
         id="path162" /><path
         d="m 32806.3,19288.5 c 0,0 254.1,-78.8 459.2,14.8 0,0 91.3,-12.2 55.5,-77.7 -35.7,-65.5 -242.7,-159.3 -505.8,-129.9 l -8.9,192.8"
         style="fill:#ffffff;fill-opacity:1;fill-rule:nonzero;stroke:none"
         id="path164" /><path
         d="m 33355.4,19987.3 c -15.5,0 -30.5,7.7 -39.4,21.7 -93.4,148.2 -306.1,130.5 -308.3,130.3 -25.5,-2.3 -48.1,16.5 -50.4,42 -2.4,25.6 16.4,48.2 42,50.5 11,1 271.8,22.5 395.3,-173.3 13.7,-21.7 7.2,-50.4 -14.5,-64 -7.7,-4.9 -16.3,-7.2 -24.7,-7.2"
         style="fill:#2b3058;fill-opacity:1;fill-rule:nonzero;stroke:none"
         id="path166" /><path
         d="m 33179.4,19936.4 c 0,-46.9 -38,-85 -84.9,-85 -46.9,0 -84.9,38.1 -84.9,85 0,46.9 38,84.9 84.9,84.9 46.9,0 84.9,-38 84.9,-84.9"
         style="fill:#2b3058;fill-opacity:1;fill-rule:nonzero;stroke:none"
         id="path168" /><path
         d="M 29852.8,11666.7 28872.6,6870 30728.7,6369.5 32292.8,11187 c 0,0 -875.9,1126.2 -1459.9,1063.6 -583.9,-62.5 -980.1,-583.9 -980.1,-583.9"
         style="fill:#5e231d;fill-opacity:1;fill-rule:nonzero;stroke:none"
         id="path170" /><path
         d="m 34253.2,13189.1 -3128.3,542.3 c 0,0 -625.6,187.7 -1230.4,-271.2 -604.8,-458.8 -2743,-3984.8 -2743,-3984.8 l 1324.8,-1103.8 893.9,939.7 c 0,0 586.8,2668.2 1295.9,2480.5 709.1,-187.7 1376.4,-1209.6 2022.9,-1313.8 646.6,-104.3 3639.8,-513.1 4265.4,91.7 625.7,604.8 187.7,1876.9 0,2148.1 -187.7,271.1 -2701.2,471.3 -2701.2,471.3"
         style="fill:#753126;fill-opacity:1;fill-rule:nonzero;stroke:none"
         id="path172" /><path
         d="m 33147.9,12876.3 c 0,0 -396.3,1147 -542.3,1605.8 0,0 -1866.7,-612.3 -3059.3,-561.8 -1191.9,50.5 -1419.5,23.1 -1419.5,23.1 l 64.4,1137.5 c 0,0 1140.2,402.3 2443.6,715.1 0,0 1074.1,2168.9 2867.6,2523.5 0,0 1439,229.4 1751.8,166.8 312.9,-62.5 666,-323 1116.3,-1258.2 542.2,-1126.2 980.8,-4453.4 813.1,-4465.6 -748.9,-54.3 -4035.7,113.8 -4035.7,113.8"
         style="fill:#1d50bd;fill-opacity:1;fill-rule:nonzero;stroke:none"
         id="path174" /><path
         d="m 32605.7,14446.4 c -12.7,0 -25,6.8 -31.5,18.7 -9.4,17.3 -2.9,39 14.4,48.4 2.4,1.3 243.1,133.5 513,389.6 248,235.4 572.3,626.9 708.7,1155.4 4.9,19.1 24.4,30.6 43.5,25.7 19.1,-4.9 30.6,-24.4 25.7,-43.5 -140.9,-545.8 -474.9,-948.9 -730.4,-1191 -276.4,-262 -516.4,-393.5 -526.4,-398.9 -5.4,-3 -11.3,-4.4 -17,-4.4"
         style="fill:#ffffff;fill-opacity:1;fill-rule:nonzero;stroke:none"
         id="path176" /><path
         d="m 34363.9,5335.9 c -39.4,0 -71.4,31.9 -71.4,71.4 v 4170.9 c 0,39.5 32,71.4 71.4,71.4 39.5,0 71.5,-31.9 71.5,-71.4 V 5407.3 c 0,-39.5 -32,-71.4 -71.5,-71.4"
         style="fill:#382234;fill-opacity:1;fill-rule:nonzero;stroke:none"
         id="path178" /><path
         d="m 36100.4,5335.9 h -3421.9 c -39.4,0 -71.4,31.9 -71.4,71.4 0,39.4 32,71.4 71.4,71.4 h 3421.9 c 39.4,0 71.4,-32 71.4,-71.4 0,-39.5 -32,-71.4 -71.4,-71.4"
         style="fill:#382234;fill-opacity:1;fill-rule:nonzero;stroke:none"
         id="path180" /><path
         d="m 31960.3,9713.1 v 0 c 5.2,18.3 11.1,37.1 17.4,56 v 0 c 0.1,0.1 0.1,0.1 0.1,0.2 4,11.8 8.2,23.7 12.5,35.5 51.5,123.3 193.3,288.6 193.3,288.6 258,269.6 1072.7,1205.1 1072.7,1205.1 l 804.8,3949.6 c 0,0 51.1,459.6 221.3,510.7 170.3,51 3545.8,204.3 3664.9,102.1 119.2,-102.1 255.4,-204.3 204.3,-510.7 -51,-306.4 -1021.4,-5396.7 -1021.4,-5396.7 0,0 -34.1,-238.3 -255.4,-306.4 -197.6,-60.8 -3965.4,-162.3 -4781.8,-110.6 v 0 c -143.7,27.7 -132.7,176.6 -132.7,176.6"
         style="fill:#c7c7c7;fill-opacity:1;fill-rule:nonzero;stroke:none"
         id="path182" /><path
         d="m 30621.2,18611 c 232.7,226.2 377.4,542.6 377.4,892.8 0,687.6 -557.4,1244.9 -1245,1244.9 -687.5,0 -1244.9,-557.3 -1244.9,-1244.9 0,-687.6 557.4,-1244.9 1244.9,-1244.9 171.3,0 334.4,34.6 482.9,97.1 l 503.3,-296.2 c 25.8,-15.1 56.6,9.6 47.4,38 l -166,513.2"
         style="fill:#c7c7c7;fill-opacity:1;fill-rule:nonzero;stroke:none"
         id="path184" /><path
         d="m 30495.3,19620.6 h -1505 c -17,0 -30.8,13.8 -30.8,30.8 0,17.1 13.8,30.8 30.8,30.8 h 1505 c 17,0 30.8,-13.7 30.8,-30.8 0,-17 -13.8,-30.8 -30.8,-30.8"
         style="fill:#ffffff;fill-opacity:1;fill-rule:nonzero;stroke:none"
         id="path186" /><path
         d="m 30495.3,19207.9 h -1505 c -17,0 -30.8,13.8 -30.8,30.8 0,17 13.8,30.8 30.8,30.8 h 1505 c 17,0 30.8,-13.8 30.8,-30.8 0,-17 -13.8,-30.8 -30.8,-30.8"
         style="fill:#ffffff;fill-opacity:1;fill-rule:nonzero;stroke:none"
         id="path188" /><path
         d="m 42308.9,19684.4 c 232.8,226.2 377.4,542.5 377.4,892.7 0,687.6 -557.3,1245 -1244.9,1245 -687.6,0 -1244.9,-557.4 -1244.9,-1245 0,-687.5 557.3,-1244.9 1244.9,-1244.9 171.2,0 334.4,34.6 482.9,97.1 l 503.3,-296.2 c 25.7,-15.1 56.6,9.6 47.4,38 l -166.1,513.3"
         style="fill:#c7c7c7;fill-opacity:1;fill-rule:nonzero;stroke:none"
         id="path190" /><path
         d="m 42183,20694 h -1504.9 c -17,0 -30.8,13.8 -30.8,30.8 0,17 13.8,30.8 30.8,30.8 H 42183 c 17.1,0 30.8,-13.8 30.8,-30.8 0,-17 -13.7,-30.8 -30.8,-30.8"
         style="fill:#ffffff;fill-opacity:1;fill-rule:nonzero;stroke:none"
         id="path192" /><path
         d="m 42183,20281.2 h -1504.9 c -17,0 -30.8,13.8 -30.8,30.8 0,17 13.8,30.8 30.8,30.8 H 42183 c 17.1,0 30.8,-13.8 30.8,-30.8 0,-17 -13.7,-30.8 -30.8,-30.8"
         style="fill:#ffffff;fill-opacity:1;fill-rule:nonzero;stroke:none"
         id="path194" /><path
         d="m 12874.7,7888.2 -678.6,-1652.6 594.5,18.3 947.4,1643 -863.3,-8.7"
         style="fill:#ed7447;fill-opacity:1;fill-rule:nonzero;stroke:none"
         id="path196" /><path
         d="m 13885.1,5693.9 c -21.2,3.3 -46.5,10.8 -74.9,21.9 -489.1,152.8 -884.2,565.2 -973,619.5 -107.6,-65.1 -513.8,-115.2 -594.4,-64.4 -7.6,4.8 -16.6,8.8 -26.5,12.2 -31.9,-40.8 -251.1,-329.6 -235,-540.6 1.9,-25.1 3.3,-54.9 4.3,-87.8 l 17.1,-325.9 2140.4,-19.6 c 24.2,120.4 -32.9,349.3 -258,384.7"
         style="fill:#382234;fill-opacity:1;fill-rule:nonzero;stroke:none"
         id="path198" /><path
         d="m 15872.8,7938.8 -678.5,-1652.7 594.4,18.3 947.4,1643 -863.3,-8.6"
         style="fill:#ed7447;fill-opacity:1;fill-rule:nonzero;stroke:none"
         id="path200" /><path
         d="m 16883.3,5744.4 c -21.2,3.3 -46.5,10.9 -75,21.9 -489,152.8 -884.2,565.2 -972.9,619.5 -107.7,-65.1 -513.8,-115.2 -594.5,-64.4 -7.6,4.8 -16.6,8.8 -26.4,12.3 -32,-40.9 -251.2,-329.6 -235.1,-540.7 1.9,-25 3.3,-54.9 4.3,-87.8 l 17.1,-325.9 2140.5,-19.6 c 24.2,120.4 -32.9,349.3 -258,384.7"
         style="fill:#382234;fill-opacity:1;fill-rule:nonzero;stroke:none"
         id="path202" /><path
         d="m 12399.2,18447.6 c 72.3,166.4 185.4,457 185.4,645.7 0,0 -55.4,1096.5 166.4,1367.6 221.7,271 1249.6,396.2 1754.7,310 0,0 -2.6,-636.5 60.8,-759.7 63.3,-123.2 260.5,-252.6 217.4,-314.2 -43.2,-61.6 -184.9,-73.9 -184.9,-73.9 l 6.2,-141.7 c 0,0 8.8,-591.4 -38.7,-659.2 -47.5,-67.7 -688.2,-160.1 -842.2,-135.5 l 3.2,-349 c -207.6,-40.3 -783.9,-119 -1328.3,109.9"
         style="fill:#ed7447;fill-opacity:1;fill-rule:nonzero;stroke:none"
         id="path204" /><path
         d="m 12190.4,21052.3 c 110.9,369.6 985.6,874.7 1995.9,505.1 0,0 385.3,-330.3 380.1,-713.8 -75.2,-179.5 -209.7,-194.8 -220.6,-195.7 -0.3,-0.1 -0.5,-0.1 -0.8,-0.1 v 0 0 c -197.8,-16.3 -483.3,-57.9 -491.3,-162.3 -12.4,-160.1 0,-591.4 0,-591.4 h -172.5 c 0,0 0,332.7 -197.2,308 -197.1,-24.6 -234.1,-406.5 -135.5,-616 98.6,-209.4 -52.6,-431.2 -52.6,-431.2 l -711.3,-61.6 c 0,0 -172.5,702.3 -308,911.7 -135.5,209.5 -197.1,677.6 -86.2,1047.3"
         style="fill:#382234;fill-opacity:1;fill-rule:nonzero;stroke:none"
         id="path206" /><path
         d="m 18151.2,17571.6 h -4361.7 c -106.9,0 -204.2,-86.7 -217.4,-193.5 l -358,-2898.4 h -1346.7 c -40.2,0 -72.8,-32.6 -72.8,-72.9 v -131 c 0,-40.3 32.6,-72.9 72.8,-72.9 h 1477.7 c 9.1,-1.3 18.4,-2 28,-2 h 4361.8 c 106.9,0 204.2,86.6 217.4,193.5 l 368.5,2983.7 c 13.2,106.8 -62.7,193.5 -169.6,193.5"
         style="fill:#c7c7c7;fill-opacity:1;fill-rule:nonzero;stroke:none"
         id="path208" /><path
         d="m 13461.6,14715.8 h 4273.1 l 313.3,2508.6 h -4266.7 l -319.7,-2508.6"
         style="fill:#eaeaea;fill-opacity:1;fill-rule:nonzero;stroke:none"
         id="path210" /><path
         d="m 13724.3,18546.5 c 0,0 1398.4,-222.7 1829.7,-722.1 431.2,-499.4 2156.4,-2088.3 3132.4,-2360.7 976.1,-272.3 1725.1,-431.2 1725.1,-431.2 0,0 113.5,-590.2 0,-862.6 H 16757 c 0,0 -1203,408.6 -1430,703.7 0,0 136.4,-1348.2 90.8,-1952.1 -54.3,-717.5 -272.4,-2133.7 -272.4,-2133.7 h -4880.3 v 3926.9 c 0,0 45.4,2655.7 544.8,3291.3 499.4,635.6 1661.9,628.8 1661.9,628.8 0,0 299.1,-610.4 1252.5,-88.3"
         style="fill:#e05536;fill-opacity:1;fill-rule:nonzero;stroke:none"
         id="path212" /><path
         d="m 15282,12069.5 c 0,0 2156,-67.3 3007.2,-152.5 851.2,-85.1 953.3,-902.2 834.2,-1208.7 -119.2,-306.4 -1957.8,-3864.4 -2417.5,-4375.2 l -1583.2,340.5 c 0,0 1004.4,2383.4 1361.9,3081.4 h -5941.4 c 0,0 -255.4,1498.1 0,1906.7 255.4,408.6 2090.6,530.3 4738.8,407.8"
         style="fill:#5a4e74;fill-opacity:1;fill-rule:nonzero;stroke:none"
         id="path214" /><path
         d="m 15363.5,9830.7 -1634.3,-3387.8 -1736.4,102.1 1225.7,3217.6 2145,68.1"
         style="fill:#4a4063;fill-opacity:1;fill-rule:nonzero;stroke:none"
         id="path216" /><path
         d="m 20457.5,15048 h 332 c 0,0 289.4,340.5 553.2,340.5 263.9,0 763.4,0 818.2,-149.1 41.2,-112.1 -119.1,-155.5 -119.1,-155.5 0,0 280.9,36.9 299.2,-119.2 15.8,-133.7 -155.6,-155.1 -155.6,-155.1 0,0 145.8,17.6 142.9,-137.1 -2.8,-153.3 -218.5,-128.7 -218.5,-128.7 0,0 182.8,-21.5 84.2,-202.3 -50.1,-91.8 -306.5,0 -306.5,0 0,0 212.8,-102.2 102.2,-170.3 -110.7,-68.1 -1532.2,0 -1532.2,0 v 876.8"
         style="fill:#ff8f67;fill-opacity:1;fill-rule:nonzero;stroke:none"
         id="path218" /><path
         d="m 14605.8,19348.4 c 0,0 -251.4,-87 -459.5,0 0,0 -90.8,-15.1 -52.9,-79.4 37.8,-64.3 247.7,-151.5 509.7,-113.6 l 2.7,193"
         style="fill:#ffffff;fill-opacity:1;fill-rule:nonzero;stroke:none"
         id="path220" /><path
         d="m 14084.1,20038.7 c -8.5,0 -17,2.3 -24.7,7.2 -21.7,13.7 -28.2,42.3 -14.5,64 123.4,195.9 384.3,174.3 395.3,173.3 25.6,-2.3 44.4,-24.9 42,-50.5 -2.3,-25.5 -24.8,-44.2 -50.4,-42 -3.1,0.3 -215.7,16.6 -308.4,-130.3 -8.8,-14 -23.9,-21.7 -39.3,-21.7"
         style="fill:#2b3058;fill-opacity:1;fill-rule:nonzero;stroke:none"
         id="path222" /><path
         d="m 14260.1,19987.8 c 0,-46.9 38,-84.9 84.9,-84.9 46.9,0 84.9,38 84.9,84.9 0,46.9 -38,84.9 -84.9,84.9 -46.9,0 -84.9,-38 -84.9,-84.9"
         style="fill:#2b3058;fill-opacity:1;fill-rule:nonzero;stroke:none"
         id="path224" /><path
         d="m 15327,14837.9 c -11.5,0 -22.8,5.5 -29.7,15.7 -5,7.6 -125.9,188.1 -254.1,470.7 -118.6,261.1 -264.9,660.8 -288.9,1082.6 -1.1,19.7 13.9,36.6 33.6,37.7 19.7,1.1 36.6,-14 37.7,-33.6 44.8,-787 526.1,-1510.3 531,-1517.5 11,-16.3 6.7,-38.5 -9.7,-49.6 -6.1,-4.1 -13,-6 -19.9,-6"
         style="fill:#ffffff;fill-opacity:1;fill-rule:nonzero;stroke:none"
         id="path226" /><path
         d="m 21676.4,15030.2 c -19.7,0 -35.7,16 -35.7,35.7 0,19.7 16,35.7 35.7,35.7 62.6,0 388.2,17.8 391.5,17.9 19.7,1 36.5,-14 37.6,-33.7 1.1,-19.7 -14,-36.5 -33.7,-37.6 -13.5,-0.7 -330.9,-18 -395.4,-18"
         style="fill:#2b3058;fill-opacity:1;fill-rule:nonzero;stroke:none"
         id="path228" /><path
         d="m 22002.2,14772.7 c -50.8,0 -99.3,0.3 -130.2,1.2 -19.7,0.6 -35.2,17.1 -34.6,36.8 0.6,19.8 17.2,35.2 36.8,34.6 89,-2.7 336.4,0 338.9,0.1 19.8,0.4 35.9,-15.6 36.1,-35.4 0.2,-19.7 -15.6,-35.9 -35.3,-36.1 -6.7,-0.1 -113.6,-1.2 -211.7,-1.2"
         style="fill:#2b3058;fill-opacity:1;fill-rule:nonzero;stroke:none"
         id="path230" /><path
         d="M 22137.9,14508.1 H 21858 c -19.8,0 -35.7,16 -35.7,35.7 0,19.8 15.9,35.8 35.7,35.8 h 279.9 c 19.7,0 35.7,-16 35.7,-35.8 0,-19.7 -16,-35.7 -35.7,-35.7"
         style="fill:#2b3058;fill-opacity:1;fill-rule:nonzero;stroke:none"
         id="path232" /><path
         d="m 21915.6,14305.8 c -1.3,0 -2.7,0 -4.1,0.2 l -148.4,17 c -19.6,2.2 -33.7,19.9 -31.4,39.5 2.2,19.6 19.9,33.7 39.5,31.4 l 148.4,-16.9 c 19.6,-2.3 33.7,-20 31.5,-39.6 -2.1,-18.2 -17.6,-31.6 -35.5,-31.6"
         style="fill:#2b3058;fill-opacity:1;fill-rule:nonzero;stroke:none"
         id="path234" /><path
         d="m 13104.1,18092.6 c -0.1,0 -0.3,0 -0.4,0 -791.7,8.8 -914.2,384 -919.1,400 -5.7,18.8 5,38.8 23.9,44.5 18.8,5.7 38.6,-4.9 44.4,-23.6 0.6,-1.9 29,-85.9 144.9,-170.1 109.5,-79.5 320.9,-175.1 706.7,-179.3 19.7,-0.2 35.5,-16.4 35.3,-36.1 -0.2,-19.6 -16.2,-35.4 -35.7,-35.4"
         style="fill:#ffffff;fill-opacity:1;fill-rule:nonzero;stroke:none"
         id="path236" /><path
         d="m 16490.3,9719.7 -11.3,70.6 c 7.9,1.2 802.6,133.9 1569,711.4 l 43,-57 c -408.2,-307.6 -821.2,-488.2 -1095.7,-585.6 -298,-105.6 -496.7,-138.1 -505,-139.4"
         style="fill:#ffffff;fill-opacity:1;fill-rule:nonzero;stroke:none"
         id="path238" /><path
         d="m 17594.4,10014.4 c -124,0 -192.5,19.3 -198.1,20.9 l 20,68.6 c 2.6,-0.7 265.6,-72.9 715.3,82.4 l 23.3,-67.5 c -241.6,-83.5 -431.2,-104.4 -560.5,-104.4"
         style="fill:#ffffff;fill-opacity:1;fill-rule:nonzero;stroke:none"
         id="path240" /><path
         d="m 12511.3,5361.1 c -39.4,0 -71.4,32 -71.4,71.5 v 4170.9 c 0,39.4 32,71.4 71.4,71.4 39.5,0 71.4,-32 71.4,-71.4 V 5432.6 c 0,-39.5 -31.9,-71.5 -71.4,-71.5"
         style="fill:#382234;fill-opacity:1;fill-rule:nonzero;stroke:none"
         id="path242" /><path
         d="m 14247.8,5361.1 h -3421.9 c -39.4,0 -71.4,32 -71.4,71.5 0,39.4 32,71.4 71.4,71.4 h 3421.9 c 39.4,0 71.4,-32 71.4,-71.4 0,-39.5 -32,-71.5 -71.4,-71.5"
         style="fill:#382234;fill-opacity:1;fill-rule:nonzero;stroke:none"
         id="path244" /><path
         d="m 9068.65,14683.3 c 0,0 -181.59,454 0,590.2 181.59,136.1 3223.25,113.4 3541.05,113.4 317.8,0 408.6,-136.1 544.7,-544.7 136.2,-408.6 1293.9,-4925.7 1293.9,-4925.7 h 2088.3 V 9576 c 0,0 -1793.2,-272.3 -2111,-272.3 -317.8,0 -3745.3,0 -3745.3,0 0,0 -227,22.7 -272.4,136.1 -45.4,113.5 -1339.25,5243.5 -1339.25,5243.5"
         style="fill:#c7c7c7;fill-opacity:1;fill-rule:nonzero;stroke:none"
         id="path246" /><path
         d="m 24777.6,24006.6 c -232.7,226.2 -377.4,542.6 -377.4,892.8 0,687.5 557.4,1244.9 1245,1244.9 687.5,0 1244.9,-557.4 1244.9,-1244.9 0,-687.6 -557.4,-1244.9 -1244.9,-1244.9 -171.3,0 -334.4,34.5 -482.9,97.1 l -503.3,-296.2 c -25.8,-15.1 -56.6,9.6 -47.4,38 l 166,513.2"
         style="fill:#c7c7c7;fill-opacity:1;fill-rule:nonzero;stroke:none"
         id="path248" /><path
         d="m 24903.5,25016.2 h 1505 c 17,0 30.8,13.8 30.8,30.8 0,17 -13.8,30.8 -30.8,30.8 h -1505 c -17,0 -30.8,-13.8 -30.8,-30.8 0,-17 13.8,-30.8 30.8,-30.8"
         style="fill:#ffffff;fill-opacity:1;fill-rule:nonzero;stroke:none"
         id="path250" /><path
         d="m 24903.5,24603.5 h 1505 c 17,0 30.8,13.8 30.8,30.8 0,17 -13.8,30.8 -30.8,30.8 h -1505 c -17,0 -30.8,-13.8 -30.8,-30.8 0,-17 13.8,-30.8 30.8,-30.8"
         style="fill:#ffffff;fill-opacity:1;fill-rule:nonzero;stroke:none"
         id="path252" /><path
         d="m 8980.31,16360.4 c 429.98,505.2 569.72,806.2 806.2,1246.9 236.49,440.7 655.69,311.8 569.69,-32.2 -86,-344 -32.2,-1332.9 -150.5,-2214.4 -77.3,-576.6 -449.09,-748.4 -696.97,-798.3 -36.18,-0.8 -257.43,-3.4 -372.41,58.4 -640.4,400.9 -557.88,1267.4 -156.01,1739.6"
         style="fill:#3e9d8b;fill-opacity:1;fill-rule:nonzero;stroke:none"
         id="path254" /><path
         d="m 9953.8,12178.5 c 0,0 -0.11,0 -0.13,0.1 210.13,228.7 571.43,454 942.93,354 559,-150.5 784.7,247.3 1365.2,-53.7 448.2,-232.4 210.6,-759.7 -74.4,-948.2 -115.6,-54.1 -238.1,-55.9 -298.3,-52.6 -337.1,48.2 -862.9,-222.2 -1272,-385.9 -374.5,-149.8 -700.06,189.7 -777.8,279.8 -146.14,199 -51.83,504.8 -4.15,627.8 30.87,66.8 118.65,178.7 118.65,178.7"
         style="fill:#3e9d8b;fill-opacity:1;fill-rule:nonzero;stroke:none"
         id="path256" /><path
         d="m 7079.92,11163.8 c 268.73,-247.3 999.69,-569.7 1418.91,-838.5 291.93,-187.1 281.53,-499.3 248.3,-671.6 l -0.39,0.5 c 0,0 -29.14,-107.8 -65.11,-173.1 -112.38,-171.1 -205.01,-307.6 -494.52,-338.2 -350.03,-37 -720.21,494.5 -892.2,913.7 -171.99,419.2 -720.21,698.7 -816.95,1021.2 -96.74,322.5 333.23,333.2 601.96,86"
         style="fill:#3e9d8b;fill-opacity:1;fill-rule:nonzero;stroke:none"
         id="path258" /><path
         d="m 7852.64,11509.1 c 0,0 290.23,-365.5 816.95,-53.8 526.72,311.8 333.23,1171.7 0,1569.4 -333.23,397.8 -687.96,1085.7 -687.96,1612.4 0,526.8 -257.98,1386.7 -859.94,1107.2 -601.97,-279.5 -161.24,-945.9 32.25,-1365.1 193.48,-419.3 300.98,-1064.2 279.48,-1461.9 -21.5,-397.8 53.74,-1042.7 419.22,-1408.2"
         style="fill:#3e9d8b;fill-opacity:1;fill-rule:nonzero;stroke:none"
         id="path260" /><path
         d="m 9803.31,8740.5 c 0,0 433.69,-374.5 728.59,85.2 295,459.8 321,850.1 555.2,1197.1 234.2,347 130.1,893.5 -251.5,780.7 -381.7,-112.7 -399.1,-572.5 -598.6,-763.3 -199.5,-190.9 -558.74,-514.3 -598.53,-772.1 -32.23,-208.7 -37.01,-340.5 164.84,-527.6"
         style="fill:#3e9d8b;fill-opacity:1;fill-rule:nonzero;stroke:none"
         id="path262" /><path
         d="m 9940.23,13169.7 c 0,0 521.87,-450.6 876.77,102.6 354.9,553.2 386.2,1022.9 668,1440.4 281.8,417.5 156.5,1075.1 -302.7,939.4 -459.3,-135.7 -480.1,-688.9 -720.2,-918.5 -240.1,-229.7 -672.34,-618.8 -720.21,-929 -38.78,-251.2 -44.54,-409.8 198.34,-634.9"
         style="fill:#3e9d8b;fill-opacity:1;fill-rule:nonzero;stroke:none"
         id="path264" /><path
         d="m 6825.92,10850.8 c 1.4,3.5 4.09,6.3 7.58,7.8 3.49,1.5 7.36,1.6 10.91,0.2 l 185.12,-72.9 c -103.06,125.2 -160.53,199.1 -161.09,199.8 -2.33,3 -3.35,6.8 -2.87,10.6 0.48,3.7 2.4,7.1 5.41,9.4 6.22,4.8 15.19,3.7 20.01,-2.5 2.06,-2.7 209.8,-269.9 543.73,-648.3 v 432 c 0,7.8 6.4,14.2 14.26,14.2 7.87,0 14.26,-6.4 14.26,-14.2 v -464.3 c 271.12,-305.7 542.6,-591 806.94,-847.9 l -20.52,574.4 c -0.28,7.9 5.89,14.5 13.76,14.8 0.14,0 0.27,0 0.4,0 7.8,0 14.06,-6 14.35,-13.7 l 21.5,-602 c 0.02,-0.7 -0.11,-1.3 -0.24,-1.9 278.3,-268.7 547.5,-504.3 800.25,-700.3 -41.4,622.4 -59.98,1260.1 -55.24,1895.5 -212.55,282.2 -430.55,673.1 -647.94,1161.8 l -644.43,461.9 c -6.39,4.6 -7.86,13.5 -3.28,19.9 2.22,3.1 5.52,5.1 9.29,5.7 3.75,0.6 7.52,-0.2 10.6,-2.4 l 605.14,-433.7 c -202.74,462.2 -403,1003.6 -595.23,1609.1 -33.9,106.8 -68.11,217.4 -101.68,328.8 l -231.59,210.5 c -2.81,2.6 -4.47,6.1 -4.65,9.9 -0.18,3.8 1.14,7.5 3.7,10.3 5.28,5.8 14.31,6.2 20.14,0.9 L 7661,13845.6 c -240.56,804.5 -379.84,1416.5 -381.22,1422.6 -0.85,3.7 -0.2,7.5 1.84,10.8 2.03,3.2 5.19,5.4 8.9,6.3 3.7,0.8 7.5,0.2 10.73,-1.9 3.24,-2 5.48,-5.2 6.33,-8.9 0.46,-2 46.59,-204.1 129.78,-523.2 l 157.37,422.9 c 1.33,3.6 3.97,6.4 7.44,8 3.47,1.6 7.34,1.7 10.9,0.4 3.57,-1.3 6.4,-4 7.99,-7.4 1.59,-3.5 1.72,-7.4 0.4,-10.9 l -171.54,-461 c 79.27,-301.7 164.12,-603 252.18,-895.5 2.56,-2.9 3.7,-6.7 3.24,-10.7 33.2,-110.1 67,-219.3 100.49,-324.8 77.91,-245.4 158.53,-484.2 239.69,-710 l 29.36,714.5 c 0.16,3.9 1.79,7.4 4.59,10 2.78,2.5 6.4,3.8 10.24,3.7 3.81,-0.2 7.32,-1.8 9.9,-4.6 2.58,-2.8 3.92,-6.5 3.76,-10.3 l -32.22,-784.1 c 325.02,-892 652.62,-1565.8 973.72,-2002.7 2.64,284.9 9.68,568.4 20.93,842.8 42.6,1038.2 145.93,2085.6 307.11,3113.1 20.11,128.2 41.53,258.5 63.68,387.1 l -264.13,649.6 c -2.96,7.3 0.56,15.6 7.83,18.6 3.52,1.4 7.4,1.4 10.91,-0.1 3.51,-1.5 6.24,-4.2 7.68,-7.8 l 246.91,-607.2 c 33.57,192.6 69.51,385.9 106.86,574.7 -0.16,2.5 0.32,4.9 1.41,7.1 56.06,282.8 116.46,561.8 179.55,829.3 l -142.36,348.8 c -1.44,3.5 -1.43,7.4 0.05,10.9 1.47,3.5 4.23,6.2 7.75,7.7 3.53,1.4 7.41,1.4 10.91,-0.1 3.51,-1.5 6.24,-4.2 7.69,-7.7 l 127.28,-311.9 c 146.55,615 256.87,958.4 257.97,961.9 2.4,7.4 10.5,11.6 18,9.1 7.5,-2.4 11.6,-10.4 9.2,-17.9 -0.5,-1.4 -47.32,-147.7 -118.7,-412.1 l 170.4,166 c 2.7,2.7 6.3,4.1 10.1,4.1 3.8,-0.1 7.4,-1.6 10.1,-4.4 5.4,-5.6 5.3,-14.6 -0.3,-20.1 l -204.74,-199.4 c -75.23,-282.4 -189.32,-741.4 -306.42,-1326.9 l 474.96,468.2 c 2.7,2.7 6.2,4.2 10,4.2 h 0.1 c 3.8,-0.1 7.4,-1.6 10.1,-4.3 2.6,-2.7 4.1,-6.3 4.1,-10.1 -0.1,-3.8 -1.6,-7.4 -4.3,-10.1 l -504.85,-497.7 c -65.74,-332.2 -126.16,-673.4 -179.57,-1013.9 -103.32,-658.7 -183.62,-1337.6 -238.67,-2018 352.39,172.7 695.07,451.3 1018.49,828 v 609.1 c 0,7.8 6.4,14.2 14.3,14.2 7.9,0 14.3,-6.4 14.3,-14.2 v -575.7 c 194.5,230.7 380.1,494.8 551.9,784.9 4.8,8.3 9.7,16.5 14.5,24.7 l -56.6,410.1 c -1,7.8 4.4,15 12.2,16.1 7.8,1 15,-4.5 16.1,-12.2 l 51.6,-374 c 190.1,329.3 328.6,631.1 411.5,826.8 l -36.5,179.6 c -0.8,3.8 0,7.6 2.1,10.7 2.1,3.2 5.3,5.4 9,6.1 7.8,1.6 15.3,-3.4 16.9,-11.1 l 28.1,-138.6 c 54.1,130.5 81.6,208.7 81.9,209.5 2.6,7.4 10.8,11.3 18.2,8.7 7.4,-2.6 11.3,-10.7 8.7,-18.2 -0.3,-0.9 -33.3,-94.8 -99.3,-251.1 -0.3,-2.8 -1.4,-5.4 -3.2,-7.6 -61.4,-144.8 -129.3,-291.7 -201.8,-436.7 l 225.8,119 c 6.9,3.6 15.6,1 19.2,-6 3.7,-7 1,-15.6 -5.9,-19.3 l -261.3,-137.7 c -66.4,-130.7 -136.5,-259.1 -208.1,-381.7 -0.6,-1.9 -1.6,-3.7 -3.1,-5.2 -5,-8.6 -10.1,-17.3 -15.2,-25.9 -81.8,-138.2 -168.3,-272.7 -257.1,-400.1 l 392.7,154.5 c 3.6,1.4 7.5,1.4 11,-0.1 3.4,-1.6 6.1,-4.4 7.5,-7.9 2.9,-7.3 -0.7,-15.6 -8,-18.5 l -433,-170.4 c -93.7,-131.8 -191.6,-257.4 -290.7,-373.4 -1.3,-3.9 -3.9,-7 -7.4,-8.6 -330.59,-384.5 -680.94,-667.5 -1041.48,-841 -32.12,-402.9 -55.59,-811.1 -69.79,-1213.3 263.83,1.9 616.51,58.7 1048.27,168.8 l 264.4,578.8 c 1.6,3.4 4.4,6.1 8,7.4 3.6,1.3 7.4,1.2 10.9,-0.4 7.2,-3.3 10.3,-11.7 7,-18.9 l -254.7,-557.8 c 250.4,64.9 527.3,147.4 823.1,245.4 l 164.8,315.1 c 1.7,3.4 4.7,5.9 8.3,7 3.7,1.1 7.5,0.8 10.9,-1 7,-3.6 9.7,-12.3 6,-19.2 l -151,-289 c 334.2,111.6 628.7,221.5 817.4,294.3 l 170.3,260.8 c 4.3,6.6 13.2,8.4 19.8,4.1 6.6,-4.3 8.4,-13.1 4.1,-19.7 l -148.6,-227.6 c 140.5,54.6 223.2,88.8 223.9,89.1 7.3,3 15.7,-0.4 18.7,-7.7 3,-7.2 -0.5,-15.6 -7.7,-18.6 -2.5,-1.1 -258.2,-106.6 -627.3,-240.7 l 286.8,-36.6 c 7.8,-1 13.3,-8.1 12.3,-15.9 -0.9,-7.7 -8,-13.4 -15.9,-12.4 l -336.8,43 c -1.5,0.2 -2.7,0.7 -3.8,1.2 -333.3,-119.9 -650.5,-223.9 -942.9,-309.3 l 561.5,-144 c 7.6,-2 12.2,-9.8 10.2,-17.4 -1.6,-6.3 -7.3,-10.7 -13.8,-10.7 -1.2,0 -2.4,0.1 -3.5,0.4 l -607.4,155.9 c -0.2,0.1 -0.5,0.2 -0.7,0.3 -577.86,-165.8 -1036.6,-251 -1363.55,-253.3 -36.52,-1066.5 -9.15,-2124.4 81.36,-3144.6 280.25,136.9 553.05,357 810.83,654.1 -0.11,0.4 -0.24,1 -0.24,1.6 v 497.3 c 0,7.9 6.4,14.3 14.26,14.3 7.84,0 14.24,-6.4 14.24,-14.3 v -466 c 159.5,188.1 311.7,404 452.3,641.6 l 1.6,2.7 -45.9,332.6 c -1.1,7.8 4.4,15 12.2,16.1 3.7,0.6 7.5,-0.4 10.5,-2.7 3.1,-2.4 5,-5.7 5.6,-9.5 l 40.9,-296.7 c 153.5,264.7 265.6,507.7 332.9,665.6 l -30.3,149.2 c -0.7,3.7 0,7.5 2.1,10.7 2.1,3.2 5.3,5.4 9.1,6.1 3.7,0.8 7.5,0 10.7,-2.1 3.1,-2.1 5.3,-5.3 6.1,-9 l 21.9,-108.2 c 43.9,105.5 66.8,170.3 67,170.9 2.6,7.4 10.7,11.3 18.1,8.7 3.6,-1.2 6.5,-3.8 8.2,-7.3 1.6,-3.4 1.8,-7.3 0.6,-10.8 -0.8,-2.4 -86.5,-244.1 -248.9,-567.9 l 174.9,92.2 c 6.9,3.7 15.6,1 19.3,-5.9 3.6,-7 0.9,-15.6 -6,-19.3 l -210.5,-111 c -56.1,-109.6 -115.1,-216.8 -175.3,-318.5 -66.1,-111.8 -136.1,-220.7 -208.1,-323.8 l 314.7,123.8 c 3.5,1.4 7.4,1.3 10.9,-0.2 3.5,-1.5 6.2,-4.3 7.6,-7.9 1.4,-3.5 1.3,-7.4 -0.2,-10.9 -1.6,-3.5 -4.3,-6.1 -7.9,-7.5 l -352.8,-138.8 c -0.6,-0.3 -1.3,-0.4 -1.9,-0.5 -333.21,-466.5 -695.12,-795.9 -1075.74,-979.2 14.13,-157 29.63,-312.4 46.05,-462 0.85,-7.8 -4.81,-14.9 -12.64,-15.7 -0.52,-0.1 -1.04,-0.1 -1.56,-0.1 -7.27,0 -13.36,5.4 -14.15,12.7 -35.71,325.2 -65.51,662 -88.58,1001 -381.89,293.9 -796.12,673.9 -1231.2,1129.3 -0.69,0 -1.39,0.1 -2.09,0.2 l -351.15,78.9 c -3.71,0.8 -6.88,3 -8.92,6.3 -2.04,3.2 -2.7,7 -1.87,10.7 0.84,3.7 3.08,6.9 6.32,8.9 3.23,2.1 7.02,2.7 10.72,1.9 l 311.81,-70 c -328.26,345.8 -599.02,661.7 -768.72,866.2 l -233.12,91.9 c -3.55,1.4 -6.34,4.1 -7.86,7.6 -1.51,3.4 -1.58,7.3 -0.18,10.9"
         style="fill:#006666;fill-opacity:1;fill-rule:nonzero;stroke:none"
         id="path266" /><path
         d="M 7892.57,5359.7 H 10429.7 V 7896.9 H 7892.57 V 5359.7"
         style="fill:#c7470a;fill-opacity:1;fill-rule:nonzero;stroke:none"
         id="path268" /><path
         d="m 44408,18305.1 c 0,0 -1218.3,-162.5 -1933,-1104.6 -714.7,-942.1 -1656.8,-1348.2 -1754.3,-1364.4 -97.4,-16.3 -1330.3,-102.7 -1893.4,16.4 l -185.7,-861.1 c 0,0 1711,-833.8 2219.9,-833.8 509,0 1786.8,552.3 1786.8,552.3 0,0 -86.7,-1624.3 216.5,-1797.6 303.3,-173.3 389.9,-649.7 758.1,-844.7 368.1,-194.9 1234.5,-822.9 1689.3,-822.9 454.8,0 2100.8,21.6 2144.1,108.2 43.3,86.7 -21.7,1862.6 86.6,1927.6 108.3,65 866.3,86.6 1234.5,801.3 368.2,714.7 -194.9,1667.7 -324.9,2209.1 -129.9,541.4 -411.5,1711 -1537.7,2014.2 0,0 -557.6,56.8 -793.2,56.8 0,0 -1290.4,44.3 -1713.6,-56.8"
         style="fill:#712d44;fill-opacity:1;fill-rule:nonzero;stroke:none"
         id="path270" /><path
         d="m 43238.4,12749.9 c 0,0 -1884.2,-16.3 -2631.4,-308.7 -747.2,-292.3 -1088.3,-1526.8 -942.1,-2062.9 146.2,-536 1416.8,-2698.7 1546.8,-2942.4 l 1803,113.7 c 0,0 -783.3,2471.4 -734.6,2715 48.7,243.7 324.9,178.7 324.9,178.7 0,0 1120.3,-2674.4 1363.9,-2950.5 l 2095.4,97.4 c 0,0 -990.4,2934.3 -990.4,3064.3 0,129.9 2030.4,-16.3 2192.9,97.4 162.4,113.7 172.9,276.3 189.5,601 16.5,324.8 -823,1283.3 -1342.8,1332 -519.8,48.7 -2875.1,65 -2875.1,65"
         style="fill:#965326;fill-opacity:1;fill-rule:nonzero;stroke:none"
         id="path272" /><path
         d="m 45905.9,5335.9 c -39.5,0 -71.5,31.9 -71.5,71.4 v 4170.9 c 0,39.5 32,71.4 71.5,71.4 39.4,0 71.4,-31.9 71.4,-71.4 V 5407.3 c 0,-39.5 -32,-71.4 -71.4,-71.4"
         style="fill:#382234;fill-opacity:1;fill-rule:nonzero;stroke:none"
         id="path274" /><path
         d="m 47642.3,5335.9 h -3421.8 c -39.5,0 -71.4,31.9 -71.4,71.4 0,39.4 31.9,71.4 71.4,71.4 h 3421.8 c 39.5,0 71.5,-32 71.5,-71.4 0,-39.5 -32,-71.4 -71.5,-71.4"
         style="fill:#382234;fill-opacity:1;fill-rule:nonzero;stroke:none"
         id="path276" /><path
         d="m 43502.2,9713.1 v 0 c 5.2,18.3 11.1,37.1 17.5,56 v 0 c 0,0.1 0,0.1 0.1,0.2 4,11.8 8.1,23.7 12.5,35.5 51.4,123.3 193.3,288.6 193.3,288.6 258,269.6 1072.6,1205.1 1072.6,1205.1 l 804.9,3949.6 c 0,0 51,459.6 221.3,510.7 170.2,51 3545.7,204.3 3664.9,102.1 119.2,-102.1 255.4,-204.3 204.3,-510.7 -51.1,-306.4 -1021.4,-5396.7 -1021.4,-5396.7 0,0 -34.1,-238.3 -255.4,-306.4 -197.6,-60.8 -3965.5,-162.3 -4781.9,-110.6 v 0 c -143.6,27.7 -132.7,176.6 -132.7,176.6"
         style="fill:#c7c7c7;fill-opacity:1;fill-rule:nonzero;stroke:none"
         id="path278" /><path
         d="m 47938.8,17903.7 c -631.6,938.4 -541.4,1010.5 -505.3,1588 36.1,577.4 -415,1010.5 -739.8,1263.1 -314.2,244.4 -206.4,640.6 -802.9,731.7 -1016.4,261.7 -1597.3,-173.8 -1785.1,-353.4 -1.5,-2.2 -112,-158.9 -90.5,-272.5 14.8,-78.1 47.8,-147.1 92.7,-187.7 53.5,-38.9 101,-44.3 107.3,-44.9 0.2,0 0.5,0 0.7,0 h 0.1 v 0 c 197.8,-16.3 354.6,-212.5 464.9,-368.9 0,0 100.2,-244.8 104.2,-314.8 152.4,218.6 292.7,182.5 292.7,182.5 197.2,-24.7 233.2,-351.1 134.7,-560.5 -6.5,-13.8 -11.9,-27.7 -16.4,-41.5 0,0 -196.4,-559.2 -22,-959 83.5,-191.5 63,-359.9 18.9,-483.4 -36,-68.8 -78.5,-141 -123.8,-215.7 v 0 0 c -212.9,-350.6 -485.8,-753.9 -414.6,-1099.8 126.3,-613.6 487.2,-1696.3 1966.9,-1154.9 1479.7,541.3 1948.9,1353.4 1317.3,2291.7"
         style="fill:#382234;fill-opacity:1;fill-rule:nonzero;stroke:none"
         id="path280" /><path
         d="m 44466.5,19972.4 c -15.4,0 -30.5,7.6 -39.3,21.6 -93.4,148.3 -306.2,130.6 -308.3,130.4 -25.5,-2.4 -48.1,16.4 -50.5,42 -2.3,25.5 16.5,48.1 42,50.5 11.1,1 271.9,22.5 395.4,-173.3 13.6,-21.7 7.1,-50.4 -14.5,-64.1 -7.7,-4.8 -16.3,-7.1 -24.8,-7.1"
         style="fill:#2b3058;fill-opacity:1;fill-rule:nonzero;stroke:none"
         id="path282" /><path
         d="m 44290.6,19921.4 c 0,-46.9 -38,-84.9 -84.9,-84.9 -46.9,0 -85,38 -85,84.9 0,46.9 38.1,84.9 85,84.9 46.9,0 84.9,-38 84.9,-84.9"
         style="fill:#2b3058;fill-opacity:1;fill-rule:nonzero;stroke:none"
         id="path284" /><path
         d="m 44432,19299 v 0 0 c -1.8,0.6 -3.6,1.1 -5.3,1.6 -8.4,1.7 -17.4,0 -24.6,-2.2 -4.3,-1.8 -8.7,-3.6 -13,-5.3 -0.4,-0.2 -0.7,-0.3 -0.7,-0.3 v 0.1 c -200.2,-76.9 -434,-4.4 -434,-4.4 l 4.7,-191.2 c 263.1,-29.5 474.3,62.8 510,128.3 25.2,46.1 -12.5,65.8 -37.1,73.4"
         style="fill:#ffffff;fill-opacity:1;fill-rule:nonzero;stroke:none"
         id="path286" /><path
         d="m 43771,10407.6 h -1166 c -19.8,0 -35.8,16 -35.8,35.7 0,19.7 16,35.7 35.8,35.7 h 1166 c 19.7,0 35.7,-16 35.7,-35.7 0,-19.7 -16,-35.7 -35.7,-35.7"
         style="fill:#ffffff;fill-opacity:1;fill-rule:nonzero;stroke:none"
         id="path288" /><path
         d="m 42648.3,14674.2 c -8.5,0 -17.1,3 -23.9,9.1 -14.7,13.2 -15.9,35.8 -2.7,50.4 v 0 c 1.4,1.6 141.3,158.9 294.7,438.5 141.3,257.7 323.2,674.9 387.6,1199.5 2.5,19.6 20.3,33.5 39.9,31.1 19.5,-2.4 33.5,-20.2 31,-39.8 -65.9,-536.9 -252.3,-963.8 -397.1,-1227.3 -157.2,-286.1 -297.1,-443.1 -303,-449.7 -7,-7.8 -16.8,-11.8 -26.5,-11.8"
         style="fill:#ffffff;fill-opacity:1;fill-rule:nonzero;stroke:none"
         id="path290" /><path
         d="m 19309.4,5275.4 c -39.4,0 -71.4,32 -71.4,71.4 v 8524.7 c 0,39.5 32,71.5 71.4,71.5 39.5,0 71.4,-32 71.4,-71.5 V 5346.8 c 0,-39.4 -31.9,-71.4 -71.4,-71.4"
         style="fill:#382234;fill-opacity:1;fill-rule:nonzero;stroke:none"
         id="path292" /><path
         d="m 49524.1,11694.2 c -97,-53 -268.6,51.3 -368.9,158.1 -174.6,186 -120.7,367.3 -210.7,667.4 -127.9,426.2 -336.5,393.2 -456.7,755.2 -149.5,450.3 143.7,590.6 52.7,1053.8 -101.2,515 -494.5,497.9 -737.6,1088.9 -224.6,545.7 -175.7,1256.2 87.8,1369.9 199.2,86 547.3,-158 720.1,-439.1 243.7,-396.5 -4.4,-634.4 210.7,-1071.3 234.2,-475.6 647.2,-435.1 702.6,-807.9 51.7,-348.6 -292.8,-494.9 -210.8,-860.6 61.2,-272.9 266.1,-250.3 351.3,-562 63,-231.1 -42.6,-268.8 -70.3,-790.4 -18.9,-356.9 21.3,-511.9 -70.2,-562"
         style="fill:#3e9d8b;fill-opacity:1;fill-rule:nonzero;stroke:none"
         id="path294" /><path
         d="m 50894,17437.3 c -212.4,78 -464.7,-147.8 -579.6,-298.5 -44.8,-58.8 -175.6,-246.4 -193.2,-878.2 -16,-573.5 86.5,-606.9 35.1,-948.4 -64.1,-426.7 -231.1,-420.9 -368.8,-913.3 -125.3,-447.9 -173.2,-1117.9 105.4,-1264.5 72,-37.9 180.3,-48.5 263.4,0 255.2,148.6 -46.2,666 175.7,1229.4 201.5,511.9 595.5,453.7 667.4,878.2 77.7,458.9 -360.1,661.6 -228.4,1088.9 93.8,304 361.2,349.5 368.9,649.8 4.5,177.9 -83.3,396.9 -245.9,456.6"
         style="fill:#3e9d8b;fill-opacity:1;fill-rule:nonzero;stroke:none"
         id="path296" /><path
         d="m 51034.5,11711.8 c -206.5,-83.1 -487.8,26.7 -614.7,210.7 -219.2,317.8 38.5,832.6 158,1071.4 198.4,396.3 324,361.7 386.4,632.3 96.4,417.6 -179.3,602.1 -52.7,983.5 85.9,258.6 222.2,202.5 368.9,491.7 249,491.3 -38.4,861.8 210.7,1106.5 144,141.5 405.5,180.4 562,87.8 363.2,-214.7 136.8,-1123.1 123,-1176.7 -125.2,-484.3 -303,-476.1 -333.7,-860.6 -35.4,-443.2 185.5,-644.1 35.1,-895.7 -127.6,-213.5 -323.2,-129.8 -456.6,-351.3 -146.1,-242.6 44.3,-416.5 -70.3,-825.4 -39.1,-139.5 -109.6,-391.1 -316.1,-474.2"
         style="fill:#3e9d8b;fill-opacity:1;fill-rule:nonzero;stroke:none"
         id="path298" /><path
         d="m 48224.4,11694.2 c -177.5,141.4 -51.2,355.7 -193.2,632.3 -166.2,323.6 -442.4,231.7 -632.3,544.4 -187.8,309.3 38.7,471.1 -122.9,825.5 -190.6,417.9 -592,382.7 -685,755.2 -67.9,272 70.5,593.4 210.8,614.7 157.6,24 191.3,-350.5 614.7,-667.4 276.7,-207.1 438.3,-178.7 562,-386.4 118.2,-198.4 15.7,-299.9 70.3,-579.5 100.8,-517 523.1,-538.5 667.4,-1089 11.2,-42.8 135,-535.7 -87.9,-684.9 -110.6,-74.1 -292.4,-53.8 -403.9,35.1"
         style="fill:#3e9d8b;fill-opacity:1;fill-rule:nonzero;stroke:none"
         id="path300" /><path
         d="m 49684.3,10700.3 c -9.9,0 -18.4,7.3 -19.6,17.4 -134.8,1105.2 -571.9,2574.4 -914.9,3612.4 -371.7,1125.1 -716,1999.9 -719.5,2008.6 -4,10.2 1,21.7 11.2,25.7 10.2,4 21.7,-1 25.7,-11.2 3.4,-8.7 348.1,-884.3 720.2,-2010.4 343.6,-1039.8 781.5,-2511.9 916.6,-3620.3 1.3,-10.9 -6.4,-20.8 -17.3,-22.1 -0.8,-0.1 -1.6,-0.1 -2.4,-0.1"
         style="fill:#176657;fill-opacity:1;fill-rule:nonzero;stroke:none"
         id="path302" /><path
         d="m 49963.1,10700.3 c -10.3,0 -19,7.9 -19.7,18.4 -62.9,867.3 -55.3,1747.3 22.5,2615.3 62.2,694.5 169.3,1382.9 318.2,2046.3 253.6,1129.8 544.9,1804.2 547.8,1810.9 4.4,10 16,14.6 26.1,10.3 10,-4.4 14.6,-16.1 10.2,-26.1 -2.9,-6.7 -292.9,-678.5 -545.7,-1805 -233.3,-1039.5 -481.5,-2689.9 -339.6,-4648.9 0.8,-10.9 -7.4,-20.4 -18.3,-21.2 -0.5,0 -1,0 -1.5,0"
         style="fill:#176657;fill-opacity:1;fill-rule:nonzero;stroke:none"
         id="path304" /><path
         d="m 50385.5,10700.3 c -2.8,0 -5.6,0.5 -8.3,1.8 -9.9,4.6 -14.3,16.3 -9.7,26.3 590.3,1282.9 1481.7,5294.8 1490.7,5335.1 2.3,10.7 12.9,17.5 23.6,15.1 10.7,-2.3 17.4,-12.9 15.1,-23.6 -2.3,-10.1 -227,-1023.6 -521.9,-2182.8 -272.3,-1070.5 -661.9,-2487.7 -971.5,-3160.4 -3.3,-7.3 -10.5,-11.5 -18,-11.5"
         style="fill:#176657;fill-opacity:1;fill-rule:nonzero;stroke:none"
         id="path306" /><path
         d="m 49453.8,10700.3 c -5.6,0 -11.1,2.3 -15,6.9 -679.1,790.4 -1343.7,1838.2 -1781.6,2578 -474.3,801.3 -792.4,1424.1 -795.5,1430.3 -5,9.7 -1.1,21.7 8.7,26.6 9.7,5 21.7,1.1 26.6,-8.6 3.2,-6.2 320.7,-628 794.5,-1428.4 437,-738.3 1100.2,-1783.9 1777.3,-2572.1 7.2,-8.3 6.2,-20.8 -2.1,-27.9 -3.7,-3.3 -8.3,-4.8 -12.9,-4.8"
         style="fill:#176657;fill-opacity:1;fill-rule:nonzero;stroke:none"
         id="path308" /><path
         d="m 48778.8,5305.8 c -3.9,0 -7.9,0.3 -11.9,0.9 -38.9,6.6 -65.1,43.4 -58.6,82.3 l 696.5,4162.4 c 6.5,38.9 43.4,65.1 82.3,58.6 38.9,-6.5 65.1,-43.3 58.6,-82.2 l -696.5,-4162.4 c -5.9,-34.9 -36.1,-59.6 -70.4,-59.6"
         style="fill:#382234;fill-opacity:1;fill-rule:nonzero;stroke:none"
         id="path310" /><path
         d="m 50638,5305.8 c -34.3,0 -64.5,24.7 -70.4,59.6 l -696.5,4162.4 c -6.5,38.9 19.7,75.7 58.7,82.2 38.9,6.5 75.7,-19.7 82.2,-58.6 L 50708.6,5389 c 6.5,-38.9 -19.8,-75.7 -58.7,-82.3 -4,-0.6 -8,-0.9 -11.9,-0.9"
         style="fill:#382234;fill-opacity:1;fill-rule:nonzero;stroke:none"
         id="path312" /><path
         d="m 49696.1,5305.8 c -39.4,0 -71.4,32 -71.4,71.4 v 4111.4 c 0,39.5 32,71.5 71.4,71.5 39.5,0 71.5,-32 71.5,-71.5 V 5377.2 c 0,-39.4 -32,-71.4 -71.5,-71.4"
         style="fill:#382234;fill-opacity:1;fill-rule:nonzero;stroke:none"
         id="path314" /><path
         d="m 48421.9,10321.1 c 0,-534.8 433.6,-968.4 968.4,-968.4 h 611.6 c 534.9,0 968.4,433.6 968.4,968.4 v 948.6 h -2548.4 v -948.6"
         style="fill:#c7470a;fill-opacity:1;fill-rule:nonzero;stroke:none"
         id="path316" /></g></g></svg>
