<?xml version="1.0" encoding="UTF-8" standalone="no"?>
<!-- Created with Inkscape (http://www.inkscape.org/) -->

<svg
   version="1.1"
   id="svg2"
   xml:space="preserve"
   width="1000.48"
   height="1400.84"
   viewBox="0 0 1300.48 1776.84"
   sodipodi:docname="vecteezy_phone-call-icon-vector-mobile-cell-answer-symbol_.eps"
   xmlns:inkscape="http://www.inkscape.org/namespaces/inkscape"
   xmlns:sodipodi="http://sodipodi.sourceforge.net/DTD/sodipodi-0.dtd"
   xmlns="http://www.w3.org/2000/svg"
   xmlns:svg="http://www.w3.org/2000/svg"><defs
     id="defs6" /><sodipodi:namedview
     id="namedview4"
     pagecolor="#ffffff"
     bordercolor="#666666"
     borderopacity="1.0"
     inkscape:pageshadow="2"
     inkscape:pageopacity="0.0"
     inkscape:pagecheckerboard="0" /><g
     id="g8"
     inkscape:groupmode="layer"
     inkscape:label="ink_ext_XXXXXX"
     transform="matrix(1.3333333,0,0,-1.3333333,0,1776.84)"><g
       id="g10"
       transform="scale(0.1)"><path
         d="m 8301.76,6663.16 c 0,-1772.01 -1436.51,-3208.51 -3208.52,-3208.51 -1772.01,0 -3208.52,1436.5 -3208.52,3208.51 0,1772.02 1436.51,3208.52 3208.52,3208.52 1772.01,0 3208.52,-1436.5 3208.52,-3208.52"
         style="fill:#99caf3;fill-opacity:1;fill-rule:nonzero;stroke:none"
         id="path14" /><path
         d="m 5890.01,4697.84 c 116.82,-18.08 282.71,-20.21 364.41,22.49 26.06,8.85 204.27,100.7 240.03,117.11 66.38,33.93 184.95,73.47 146.46,192.96 -15.06,41.92 -380.86,594.78 -420.61,658.97 -30.43,45.26 -120.24,187.95 -145.99,217.7 -28.31,30.3 -87.82,52.86 -144.07,40.89 -120.7,-24.57 -299.61,-181.51 -414.74,-192.8 -339.78,-32.66 -1026.67,1242.17 -1063.79,1392.78 -78.92,316.71 263.36,261.85 419.7,426.09 31.06,31.92 44.63,82.14 25.45,129.8 -19.69,45.34 -441.24,687.6 -501.61,780.43 -41.81,67.05 -90.49,176.66 -216.32,153.19 -38.88,-6.07 -91.45,-38.17 -121.58,-53.38 -1517.68,-763.15 659.33,-3704.39 1832.66,-3886.23 v 0"
         style="fill:#ffffff;fill-opacity:1;fill-rule:evenodd;stroke:none"
         id="path16" /></g></g></svg>
